<svg xmlns="http://www.w3.org/2000/svg" viewBox="0 0 736 739" fill="deeppink" stroke="none">
  <path d="M 503 719 Z" />
  <path d="M 232 719 Z" />
  <path d="M 656 712 Z" />
  <path d="M 376 712 Z" />
  <path d="M 359 712 Z" />
  <path d="M 79 712 Z" />
  <path d="M 395 711 Z" />
  <path d="M 340 711 Z" />
  <path d="M 407 710 Z" />
  <path d="M 328 710 Z" />
  <path d="M 311 710 Z" />
  <path d="M 423 709 L 424 710 Z" />
  <path d="M 438 708 Z" />
  <path d="M 297 708 Z" />
  <path d="M 434 707 Z" />
  <path d="M 301 707 Z" />
  <path d="M 642 704 Z" />
  <path d="M 93 704 Z" />
  <path d="M 456 703 Z" />
  <path d="M 453 702 L 452 703 L 453 702 L 454 702 Z" />
  <path d="M 281 702 L 282 702 L 283 703 L 282 702 Z" />
  <path d="M 277 702 Z" />
  <path d="M 456 701 Z" />
  <path d="M 279 701 Z" />
  <path d="M 461 700 Z" />
  <path d="M 465 699 L 466 699 Z" />
  <path d="M 274 699 L 275 700 Z" />
  <path d="M 272 699 Z" />
  <path d="M 269 699 L 270 699 Z" />
  <path d="M 482 695 Z" />
  <path d="M 253 695 Z" />
  <path d="M 479 694 Z" />
  <path d="M 256 694 Z" />
  <path d="M 484 693 Z" />
  <path d="M 482 693 Z" />
  <path d="M 253 693 Z" />
  <path d="M 251 693 Z" />
  <path d="M 510 687 Z" />
  <path d="M 225 687 Z" />
  <path d="M 508 685 Z" />
  <path d="M 505 685 L 505 687 Z" />
  <path d="M 503 685 Z" />
  <path d="M 232 685 Z" />
  <path d="M 230 685 L 230 687 Z" />
  <path d="M 227 685 Z" />
  <path d="M 538 667 L 538 668 L 539 667 Z" />
  <path d="M 196 667 L 197 668 L 197 667 Z" />
  <path d="M 671 664 Z" />
  <path d="M 567 664 Z" />
  <path d="M 168 664 Z" />
  <path d="M 64 664 Z" />
  <path d="M 656 663 Z" />
  <path d="M 546 663 L 547 663 Z" />
  <path d="M 188 663 L 189 663 Z" />
  <path d="M 79 663 Z" />
  <path d="M 549 662 L 550 662 Z" />
  <path d="M 185 662 L 186 662 Z" />
  <path d="M 578 655 Z" />
  <path d="M 157 655 Z" />
  <path d="M 582 638 Z" />
  <path d="M 599 629 L 599 630 Z" />
  <path d="M 136 629 L 136 630 Z" />
  <path d="M 598 624 L 598 626 Z" />
  <path d="M 137 624 L 137 626 Z" />
  <path d="M 603 623 Z" />
  <path d="M 600 623 Z" />
  <path d="M 135 623 Z" />
  <path d="M 132 623 Z" />
  <path d="M 671 607 Z" />
  <path d="M 655 607 Z" />
  <path d="M 80 607 Z" />
  <path d="M 64 607 Z" />
  <path d="M 629 599 L 630 599 Z" />
  <path d="M 631 597 Z" />
  <path d="M 628 597 Z" />
  <path d="M 104 597 L 104 598 Z" />
  <path d="M 637 580 Z" />
  <path d="M 98 580 Z" />
  <path d="M 88 569 Z" />
  <path d="M 719 560 Z" />
  <path d="M 16 560 Z" />
  <path d="M 659 551 L 660 551 Z" />
  <path d="M 75 551 L 76 551 Z" />
  <path d="M 662 549 L 662 551 Z" />
  <path d="M 73 549 L 73 551 Z" />
  <path d="M 662 546 Z" />
  <path d="M 73 546 Z" />
  <path d="M 672 544 Z" />
  <path d="M 63 544 Z" />
  <path d="M 670 543 Z" />
  <path d="M 65 543 Z" />
  <path d="M 667 538 Z" />
  <path d="M 68 538 Z" />
  <path d="M 674 522 L 674 523 Z" />
  <path d="M 61 522 L 61 523 Z" />
  <path d="M 679 518 Z" />
  <path d="M 677 518 Z" />
  <path d="M 58 518 Z" />
  <path d="M 678 516 Z" />
  <path d="M 57 515 L 57 516 Z" />
  <path d="M 679 513 Z" />
  <path d="M 693 482 Z" />
  <path d="M 42 481 L 42 482 Z" />
  <path d="M 693 478 Z" />
  <path d="M 42 478 Z" />
  <path d="M 40 478 Z" />
  <path d="M 41 476 Z" />
  <path d="M 696 465 Z" />
  <path d="M 39 465 Z" />
  <path d="M 699 463 L 700 463 Z" />
  <path d="M 35 463 L 36 463 Z" />
  <path d="M 698 459 L 698 460 Z" />
  <path d="M 37 459 Z" />
  <path d="M 702 453 L 702 454 Z" />
  <path d="M 33 453 L 33 454 Z" />
  <path d="M 702 450 L 703 451 Z" />
  <path d="M 33 450 L 32 451 Z" />
  <path d="M 703 439 Z" />
  <path d="M 32 439 Z" />
  <path d="M 704 434 Z" />
  <path d="M 31 434 Z" />
  <path d="M 709 422 L 709 423 Z" />
  <path d="M 707 422 L 707 423 Z" />
  <path d="M 28 422 L 28 423 Z" />
  <path d="M 26 422 L 26 423 Z" />
  <path d="M 709 419 Z" />
  <path d="M 26 419 Z" />
  <path d="M 708 402 Z" />
  <path d="M 27 402 Z" />
  <path d="M 719 400 Z" />
  <path d="M 16 400 Z" />
  <path d="M 710 322 Z" />
  <path d="M 25 322 Z" />
  <path d="M 706 312 Z" />
  <path d="M 29 312 Z" />
  <path d="M 703 295 Z" />
  <path d="M 32 295 Z" />
  <path d="M 711 288 Z" />
  <path d="M 24 288 Z" />
  <path d="M 35 286 Z" />
  <path d="M 702 284 Z" />
  <path d="M 33 284 Z" />
  <path d="M 33 282 Z" />
  <path d="M 725 280 Z" />
  <path d="M 10 280 Z" />
  <path d="M 694 252 Z" />
  <path d="M 41 252 Z" />
  <path d="M 689 248 L 689 250 Z" />
  <path d="M 46 248 L 46 250 Z" />
  <path d="M 725 246 Z" />
  <path d="M 10 246 Z" />
  <path d="M 687 243 Z" />
  <path d="M 48 243 Z" />
  <path d="M 711 239 Z" />
  <path d="M 24 239 Z" />
  <path d="M 687 232 Z" />
  <path d="M 51 232 Z" />
  <path d="M 719 227 Z" />
  <path d="M 16 227 Z" />
  <path d="M 678 224 Z" />
  <path d="M 677 220 L 677 221 Z" />
  <path d="M 671 210 Z" />
  <path d="M 671 197 Z" />
  <path d="M 719 196 Z" />
  <path d="M 16 196 Z" />
  <path d="M 74 189 Z" />
  <path d="M 661 188 L 661 189 Z" />
  <path d="M 660 186 Z" />
  <path d="M 76 186 L 76 187 Z" />
  <path d="M 711 184 Z" />
  <path d="M 662 184 Z" />
  <path d="M 659 184 Z" />
  <path d="M 74 184 L 73 185 L 73 186 L 73 185 Z" />
  <path d="M 24 184 Z" />
  <path d="M 81 180 Z" />
  <path d="M 655 179 Z" />
  <path d="M 725 177 Z" />
  <path d="M 653 177 Z" />
  <path d="M 83 177 Z" />
  <path d="M 80 177 L 81 177 Z" />
  <path d="M 10 177 Z" />
  <path d="M 647 169 Z" />
  <path d="M 89 168 Z" />
  <path d="M 647 165 L 647 166 Z" />
  <path d="M 643 165 L 644 165 Z" />
  <path d="M 639 157 Z" />
  <path d="M 99 156 L 98 157 Z" />
  <path d="M 638 155 Z" />
  <path d="M 105 148 Z" />
  <path d="M 725 143 Z" />
  <path d="M 10 143 Z" />
  <path d="M 622 138 Z" />
  <path d="M 711 135 Z" />
  <path d="M 642 135 Z" />
  <path d="M 93 135 Z" />
  <path d="M 24 135 Z" />
  <path d="M 120 128 Z" />
  <path d="M 615 127 Z" />
  <path d="M 695 120 Z" />
  <path d="M 40 120 Z" />
  <path d="M 597 113 Z" />
  <path d="M 578 98 Z" />
  <path d="M 156 97 L 157 98 Z" />
  <path d="M 578 96 Z" />
  <path d="M 165 89 L 166 89 Z" />
  <path d="M 567 88 L 568 88 L 569 89 L 570 89 L 569 89 L 568 88 Z" />
  <path d="M 171 88 Z" />
  <path d="M 176 83 Z" />
  <path d="M 555 82 Z" />
  <path d="M 711 80 Z" />
  <path d="M 607 80 Z" />
  <path d="M 559 80 L 558 81 L 557 81 L 558 81 Z" />
  <path d="M 555 80 Z" />
  <path d="M 179 80 L 179 81 Z" />
  <path d="M 128 80 Z" />
  <path d="M 24 80 Z" />
  <path d="M 549 78 Z" />
  <path d="M 551 76 Z" />
  <path d="M 189 76 Z" />
  <path d="M 551 74 Z" />
  <path d="M 187 74 L 188 74 Z" />
  <path d="M 184 74 Z" />
  <path d="M 549 73 Z" />
  <path d="M 546 72 Z" />
  <path d="M 185 72 L 186 72 Z" />
  <path d="M 695 67 Z" />
  <path d="M 591 67 Z" />
  <path d="M 144 67 Z" />
  <path d="M 40 67 Z" />
  <path d="M 207 66 Z" />
  <path d="M 527 64 Z" />
  <path d="M 516 58 L 515 59 L 516 59 Z" />
  <path d="M 217 58 L 218 58 Z" />
  <path d="M 519 57 Z" />
  <path d="M 223 57 L 224 57 Z" />
  <path d="M 220 57 Z" />
  <path d="M 217 56 L 218 56 Z" />
  <path d="M 503 51 Z" />
  <path d="M 232 49 Z" />
  <path d="M 488 48 Z" />
  <path d="M 477 42 Z" />
  <path d="M 258 42 L 259 42 Z" />
  <path d="M 481 41 L 482 41 Z" />
  <path d="M 725 39 Z" />
  <path d="M 10 39 Z" />
  <path d="M 286 35 L 285 36 L 286 35 L 287 35 Z" />
  <path d="M 452 34 Z" />
  <path d="M 283 34 Z" />
  <path d="M 450 33 Z" />
  <path d="M 285 33 Z" />
  <path d="M 452 32 Z" />
  <path d="M 438 32 Z" />
  <path d="M 297 32 Z" />
  <path d="M 283 32 Z" />
  <path d="M 387 26 L 388 26 Z" />
  <path d="M 367 26 Z" />
  <path d="M 347 26 L 349 26 Z" />
  <path d="M 334 26 L 335 26 L 336 27 L 335 28 L 334 28 L 335 29 L 334 30 L 331 30 L 330 29 L 330 28 L 330 29 L 329 30 L 324 30 L 323 31 L 317 31 L 316 32 L 311 32 L 310 33 L 305 33 L 304 34 L 301 34 L 300 33 L 301 32 L 300 33 L 299 33 L 300 34 L 299 35 L 297 35 L 296 34 L 295 34 L 296 35 L 295 36 L 292 36 L 291 37 L 287 37 L 286 38 L 283 38 L 282 39 L 280 39 L 279 40 L 275 40 L 274 41 L 273 41 L 272 40 L 270 42 L 268 42 L 267 43 L 265 43 L 264 44 L 262 44 L 261 45 L 260 45 L 259 44 L 260 45 L 259 46 L 256 46 L 255 47 L 254 47 L 253 48 L 251 48 L 250 49 L 248 49 L 247 50 L 246 50 L 245 51 L 244 51 L 243 52 L 240 52 L 239 53 L 238 53 L 237 52 L 236 52 L 237 53 L 236 54 L 234 54 L 234 55 L 233 56 L 231 56 L 229 58 L 227 58 L 226 59 L 224 59 L 223 60 L 222 59 L 221 59 L 222 60 L 221 61 L 220 61 L 218 63 L 216 63 L 214 65 L 213 65 L 212 66 L 211 66 L 210 67 L 209 67 L 208 68 L 207 68 L 206 69 L 205 69 L 204 70 L 203 70 L 202 71 L 201 70 L 202 71 L 201 72 L 200 72 L 199 73 L 198 73 L 197 74 L 196 74 L 194 76 L 192 76 L 189 79 L 188 79 L 186 81 L 185 81 L 183 83 L 182 83 L 181 84 L 180 84 L 179 83 L 180 84 L 178 86 L 176 86 L 176 87 L 175 88 L 174 88 L 172 90 L 170 90 L 168 88 L 170 90 L 170 91 L 169 92 L 168 91 L 167 92 L 166 92 L 167 93 L 166 94 L 165 94 L 165 95 L 164 96 L 162 96 L 162 97 L 161 98 L 160 97 L 160 98 L 157 101 L 156 100 L 157 101 L 154 104 L 153 104 L 152 105 L 151 104 L 150 105 L 150 106 L 149 107 L 148 106 L 149 107 L 142 114 L 141 114 L 140 113 L 141 114 L 140 115 L 139 115 L 139 116 L 132 123 L 130 121 L 132 123 L 130 125 L 129 125 L 129 126 L 127 128 L 126 128 L 125 129 L 125 130 L 124 131 L 123 130 L 122 131 L 121 130 L 123 132 L 116 139 L 114 139 L 113 140 L 114 139 L 115 140 L 115 141 L 108 148 L 107 147 L 108 148 L 108 149 L 107 150 L 106 150 L 106 151 L 105 152 L 104 151 L 105 152 L 104 153 L 104 154 L 98 160 L 97 160 L 96 161 L 97 162 L 96 163 L 96 164 L 92 168 L 92 169 L 90 171 L 90 172 L 88 174 L 88 175 L 87 176 L 86 176 L 85 177 L 85 178 L 84 179 L 84 181 L 83 182 L 82 182 L 82 184 L 81 185 L 81 186 L 78 189 L 77 189 L 77 191 L 76 192 L 76 193 L 75 194 L 75 195 L 74 196 L 74 197 L 73 198 L 73 199 L 70 202 L 70 204 L 68 206 L 68 207 L 67 208 L 66 207 L 67 208 L 66 209 L 66 211 L 65 212 L 65 213 L 63 215 L 63 217 L 62 218 L 62 219 L 60 221 L 59 220 L 59 219 L 58 220 L 58 221 L 59 220 L 60 221 L 60 223 L 59 224 L 59 226 L 58 227 L 58 228 L 57 229 L 57 230 L 56 231 L 56 232 L 55 233 L 55 234 L 54 235 L 53 234 L 53 239 L 52 240 L 52 242 L 50 244 L 50 247 L 49 248 L 49 250 L 48 251 L 48 252 L 47 253 L 47 255 L 46 256 L 46 258 L 45 259 L 45 260 L 44 261 L 44 264 L 43 265 L 43 267 L 41 269 L 42 270 L 41 271 L 40 271 L 41 272 L 40 273 L 41 274 L 40 275 L 40 278 L 39 279 L 39 281 L 38 282 L 38 285 L 37 286 L 37 288 L 36 289 L 36 294 L 35 295 L 35 297 L 34 298 L 33 297 L 34 298 L 34 303 L 33 304 L 33 308 L 32 309 L 32 313 L 31 314 L 31 320 L 30 321 L 30 328 L 29 329 L 28 329 L 27 330 L 28 329 L 29 330 L 29 335 L 28 336 L 27 336 L 28 336 L 29 337 L 29 338 L 28 339 L 28 347 L 27 348 L 27 349 L 28 350 L 28 351 L 27 352 L 27 353 L 28 354 L 28 363 L 27 364 L 27 366 L 28 367 L 28 368 L 27 369 L 27 370 L 28 371 L 28 380 L 27 381 L 27 384 L 28 385 L 28 400 L 29 401 L 29 407 L 30 408 L 30 414 L 29 415 L 30 416 L 29 417 L 29 418 L 29 417 L 30 416 L 31 417 L 31 423 L 32 424 L 32 430 L 33 431 L 33 434 L 34 435 L 34 436 L 33 437 L 34 438 L 34 440 L 35 441 L 35 444 L 36 445 L 36 448 L 35 449 L 36 448 L 37 449 L 37 455 L 39 457 L 39 461 L 40 462 L 40 463 L 41 464 L 41 466 L 42 467 L 42 468 L 41 469 L 43 471 L 43 473 L 44 474 L 44 475 L 43 476 L 44 475 L 45 476 L 45 480 L 46 481 L 46 482 L 47 483 L 46 484 L 46 485 L 45 486 L 45 487 L 46 486 L 49 489 L 49 490 L 48 491 L 48 492 L 49 491 L 51 493 L 51 495 L 52 496 L 52 499 L 54 501 L 54 502 L 55 503 L 55 505 L 56 506 L 56 507 L 57 508 L 57 509 L 58 510 L 57 511 L 57 512 L 56 513 L 57 513 L 57 512 L 58 511 L 59 512 L 59 516 L 60 516 L 61 517 L 60 518 L 61 518 L 62 519 L 62 520 L 63 521 L 63 522 L 64 523 L 64 524 L 65 525 L 65 526 L 66 527 L 66 528 L 67 529 L 67 530 L 69 532 L 69 533 L 70 534 L 70 536 L 73 539 L 73 542 L 74 542 L 75 543 L 75 544 L 76 545 L 76 546 L 77 547 L 76 548 L 76 549 L 77 548 L 80 551 L 80 552 L 82 554 L 82 555 L 83 556 L 81 558 L 82 557 L 83 557 L 85 559 L 85 560 L 87 562 L 87 563 L 88 564 L 88 566 L 89 565 L 90 566 L 90 567 L 91 568 L 91 569 L 92 569 L 93 570 L 93 571 L 96 574 L 96 575 L 98 577 L 98 578 L 99 578 L 100 579 L 100 580 L 104 584 L 104 585 L 105 586 L 104 587 L 105 586 L 108 589 L 108 590 L 115 597 L 115 598 L 122 605 L 120 607 L 122 605 L 130 613 L 129 614 L 130 613 L 140 623 L 141 623 L 144 626 L 144 627 L 145 628 L 147 628 L 149 630 L 149 631 L 150 632 L 151 632 L 153 634 L 154 634 L 157 637 L 156 638 L 157 639 L 158 638 L 159 638 L 164 643 L 165 643 L 167 645 L 167 646 L 166 647 L 165 647 L 166 647 L 168 645 L 170 647 L 169 648 L 170 647 L 171 647 L 174 650 L 175 650 L 177 652 L 176 653 L 177 654 L 176 655 L 177 654 L 178 654 L 179 655 L 180 654 L 181 654 L 182 655 L 183 655 L 186 658 L 185 659 L 184 659 L 185 659 L 186 658 L 187 658 L 188 659 L 188 661 L 189 660 L 190 660 L 191 661 L 192 661 L 194 663 L 195 663 L 196 664 L 197 664 L 198 665 L 199 665 L 200 666 L 201 666 L 202 667 L 203 667 L 205 669 L 206 669 L 208 671 L 209 671 L 210 672 L 209 673 L 208 673 L 208 674 L 209 673 L 214 673 L 217 676 L 219 676 L 220 677 L 221 677 L 222 678 L 224 678 L 225 679 L 224 680 L 225 679 L 226 679 L 227 680 L 228 680 L 229 681 L 230 681 L 231 682 L 233 682 L 235 684 L 236 684 L 237 685 L 240 685 L 241 686 L 242 686 L 243 687 L 244 687 L 245 688 L 246 688 L 247 689 L 248 689 L 249 690 L 250 689 L 251 690 L 253 690 L 254 691 L 255 691 L 256 692 L 257 692 L 258 693 L 262 693 L 263 694 L 264 694 L 265 695 L 268 695 L 269 696 L 270 696 L 271 697 L 275 697 L 276 698 L 279 698 L 280 699 L 283 699 L 284 700 L 284 701 L 285 700 L 287 700 L 288 701 L 291 701 L 292 702 L 294 702 L 295 703 L 298 703 L 299 704 L 300 703 L 301 704 L 303 704 L 304 705 L 310 705 L 311 706 L 314 706 L 315 707 L 314 708 L 316 706 L 317 706 L 318 707 L 326 707 L 327 708 L 335 708 L 336 709 L 344 709 L 345 710 L 344 711 L 343 711 L 344 711 L 345 710 L 390 710 L 391 711 L 392 711 L 391 711 L 390 710 L 391 709 L 399 709 L 400 708 L 408 708 L 409 707 L 417 707 L 418 706 L 419 706 L 420 707 L 421 707 L 422 706 L 424 706 L 425 705 L 431 705 L 432 704 L 434 704 L 435 703 L 436 704 L 437 703 L 440 703 L 441 702 L 443 702 L 444 701 L 448 701 L 449 700 L 450 700 L 451 701 L 451 700 L 452 699 L 456 699 L 457 698 L 460 698 L 461 697 L 462 697 L 463 698 L 465 696 L 466 696 L 467 695 L 470 695 L 471 694 L 472 694 L 473 693 L 477 693 L 478 692 L 479 692 L 480 691 L 481 691 L 482 690 L 484 690 L 485 689 L 486 690 L 487 689 L 488 689 L 489 688 L 490 688 L 491 687 L 492 687 L 493 686 L 494 686 L 495 685 L 498 685 L 499 684 L 500 684 L 502 682 L 504 682 L 505 681 L 506 681 L 507 680 L 508 680 L 509 679 L 510 679 L 511 680 L 510 679 L 511 678 L 513 678 L 514 677 L 515 677 L 516 676 L 518 676 L 521 673 L 526 673 L 527 674 L 527 673 L 526 673 L 525 672 L 526 671 L 527 671 L 529 669 L 530 669 L 531 668 L 532 668 L 534 666 L 535 666 L 536 665 L 537 665 L 538 664 L 539 664 L 540 663 L 541 663 L 543 661 L 544 661 L 545 660 L 546 661 L 547 661 L 547 659 L 548 658 L 549 658 L 550 659 L 551 659 L 550 659 L 549 658 L 552 655 L 553 655 L 554 654 L 555 654 L 556 655 L 557 654 L 558 654 L 559 655 L 558 654 L 559 653 L 558 652 L 560 650 L 561 650 L 564 647 L 565 647 L 566 648 L 568 646 L 569 647 L 568 646 L 568 645 L 570 643 L 571 643 L 576 638 L 577 639 L 578 639 L 579 638 L 578 637 L 581 634 L 582 634 L 585 631 L 586 631 L 586 630 L 588 628 L 589 628 L 594 623 L 595 623 L 605 613 L 606 614 L 605 613 L 613 605 L 615 607 L 613 605 L 620 598 L 620 597 L 628 589 L 628 588 L 630 586 L 631 587 L 630 586 L 631 585 L 631 584 L 635 580 L 635 579 L 636 578 L 637 578 L 637 577 L 639 575 L 639 574 L 642 571 L 642 570 L 643 569 L 644 569 L 644 568 L 645 567 L 646 568 L 645 567 L 645 566 L 646 565 L 647 566 L 647 564 L 648 563 L 648 562 L 650 560 L 650 559 L 652 557 L 653 557 L 654 558 L 652 556 L 653 555 L 653 554 L 655 552 L 655 551 L 658 548 L 659 549 L 659 548 L 658 547 L 659 546 L 659 545 L 660 544 L 660 543 L 661 542 L 662 542 L 662 539 L 665 536 L 665 534 L 666 533 L 666 532 L 668 530 L 668 529 L 669 528 L 669 527 L 670 526 L 670 525 L 671 524 L 671 523 L 672 522 L 672 521 L 673 520 L 673 519 L 674 518 L 675 518 L 674 517 L 675 516 L 676 516 L 676 514 L 677 513 L 676 512 L 677 511 L 678 511 L 678 508 L 679 507 L 679 506 L 680 505 L 680 503 L 681 502 L 681 501 L 683 499 L 683 497 L 684 496 L 684 493 L 686 491 L 687 492 L 687 491 L 686 490 L 686 489 L 689 486 L 690 486 L 689 485 L 689 484 L 688 483 L 689 482 L 689 481 L 690 480 L 690 476 L 691 475 L 691 474 L 692 473 L 692 471 L 694 469 L 693 468 L 693 467 L 694 466 L 694 464 L 695 463 L 695 462 L 696 461 L 696 458 L 697 457 L 697 456 L 698 455 L 698 449 L 699 448 L 700 449 L 699 448 L 699 445 L 700 444 L 700 441 L 701 440 L 701 438 L 703 436 L 702 436 L 701 435 L 702 434 L 702 431 L 703 430 L 703 424 L 704 423 L 704 417 L 705 416 L 706 417 L 706 418 L 706 417 L 705 416 L 706 415 L 705 414 L 705 409 L 706 408 L 706 401 L 707 400 L 707 390 L 708 389 L 707 388 L 707 384 L 708 383 L 708 381 L 707 380 L 707 371 L 708 370 L 708 369 L 707 368 L 708 367 L 708 365 L 707 364 L 707 354 L 708 353 L 708 352 L 707 351 L 707 350 L 708 349 L 708 348 L 707 347 L 707 339 L 706 338 L 706 337 L 707 336 L 708 336 L 707 336 L 706 335 L 706 330 L 707 329 L 708 330 L 707 329 L 706 329 L 705 328 L 705 321 L 704 320 L 704 314 L 703 313 L 703 309 L 702 308 L 702 304 L 701 303 L 701 302 L 702 301 L 701 300 L 701 298 L 702 297 L 701 298 L 700 297 L 700 295 L 699 294 L 699 289 L 698 288 L 698 287 L 699 286 L 700 286 L 698 286 L 697 285 L 697 282 L 696 281 L 696 279 L 695 278 L 695 275 L 694 274 L 694 269 L 693 268 L 693 267 L 692 266 L 692 265 L 691 264 L 691 261 L 690 260 L 690 259 L 689 258 L 689 256 L 688 255 L 688 253 L 687 252 L 687 250 L 686 249 L 686 248 L 687 247 L 686 248 L 685 247 L 685 245 L 684 244 L 684 242 L 683 241 L 683 239 L 682 238 L 682 237 L 681 236 L 681 235 L 680 234 L 680 233 L 679 232 L 679 231 L 678 230 L 678 228 L 676 226 L 676 224 L 675 223 L 675 221 L 673 219 L 673 218 L 672 217 L 672 215 L 670 213 L 670 212 L 669 211 L 669 210 L 668 209 L 668 208 L 667 207 L 667 206 L 666 205 L 666 204 L 664 202 L 664 201 L 665 200 L 664 201 L 663 200 L 663 199 L 662 198 L 662 197 L 660 195 L 660 194 L 659 193 L 659 192 L 658 191 L 658 190 L 659 189 L 658 188 L 657 189 L 656 188 L 656 187 L 654 185 L 654 184 L 653 183 L 653 182 L 652 181 L 653 180 L 652 179 L 651 180 L 650 179 L 650 178 L 651 177 L 650 176 L 649 177 L 648 176 L 648 175 L 646 173 L 646 172 L 645 171 L 645 169 L 644 169 L 641 166 L 641 165 L 638 162 L 639 161 L 640 161 L 639 161 L 638 160 L 638 159 L 637 160 L 635 158 L 636 157 L 637 157 L 636 157 L 635 158 L 633 156 L 633 155 L 630 152 L 630 151 L 631 150 L 630 149 L 630 148 L 631 147 L 630 148 L 629 148 L 628 149 L 623 144 L 623 143 L 622 142 L 622 141 L 621 141 L 617 137 L 617 136 L 616 136 L 615 135 L 615 134 L 612 131 L 614 129 L 612 131 L 610 129 L 609 129 L 607 127 L 607 126 L 604 123 L 605 122 L 603 120 L 604 121 L 603 122 L 602 122 L 601 121 L 601 120 L 600 120 L 599 119 L 599 118 L 598 118 L 594 114 L 594 113 L 593 112 L 591 112 L 585 106 L 587 104 L 586 105 L 585 104 L 584 104 L 583 105 L 580 102 L 579 102 L 575 98 L 576 97 L 575 98 L 574 97 L 574 96 L 573 97 L 571 95 L 570 95 L 569 94 L 569 93 L 570 92 L 569 93 L 568 93 L 567 92 L 568 91 L 567 90 L 566 91 L 565 91 L 564 90 L 565 89 L 564 90 L 563 89 L 562 89 L 561 88 L 560 88 L 557 85 L 558 84 L 557 85 L 556 85 L 555 84 L 554 84 L 552 82 L 551 82 L 549 80 L 548 80 L 546 78 L 546 77 L 547 76 L 546 77 L 544 77 L 543 76 L 542 76 L 541 75 L 540 75 L 539 74 L 538 74 L 537 73 L 536 73 L 534 71 L 534 70 L 531 70 L 529 68 L 528 68 L 527 67 L 526 67 L 525 66 L 524 66 L 523 65 L 522 65 L 519 62 L 518 63 L 516 61 L 514 61 L 513 60 L 512 60 L 511 59 L 512 58 L 511 57 L 512 58 L 511 59 L 509 59 L 508 58 L 507 58 L 506 57 L 505 57 L 504 56 L 502 56 L 500 54 L 500 52 L 500 53 L 499 54 L 498 53 L 496 53 L 495 52 L 493 52 L 492 51 L 492 50 L 491 49 L 490 49 L 489 50 L 487 50 L 485 48 L 482 48 L 481 47 L 480 47 L 479 46 L 476 46 L 475 45 L 476 44 L 475 44 L 474 45 L 473 44 L 471 44 L 470 43 L 467 43 L 466 42 L 464 42 L 463 41 L 461 41 L 460 40 L 457 40 L 456 39 L 453 39 L 452 38 L 449 38 L 448 37 L 447 37 L 446 36 L 447 35 L 449 35 L 450 36 L 449 35 L 443 35 L 442 36 L 440 36 L 439 35 L 440 34 L 440 33 L 440 34 L 439 35 L 437 35 L 436 34 L 436 33 L 435 33 L 434 34 L 430 34 L 429 33 L 426 33 L 425 32 L 419 32 L 418 31 L 417 31 L 416 30 L 415 31 L 412 31 L 411 30 L 406 30 L 405 29 L 405 28 L 405 29 L 404 30 L 401 30 L 400 29 L 401 28 L 400 28 L 399 27 L 400 26 L 401 26 L 400 26 L 399 27 L 398 27 L 399 27 L 400 28 L 399 29 L 391 29 L 390 28 L 385 28 L 384 27 L 383 28 L 371 28 L 370 27 L 369 28 L 346 28 L 345 29 L 336 29 L 335 28 L 336 27 L 337 27 L 336 27 L 335 26 Z" />
  <path d="M 391 25 L 392 25 Z" />
  <path d="M 360 25 Z" />
  <path d="M 344 25 Z" />
  <path d="M 496 24 Z" />
  <path d="M 340 24 L 339 25 L 338 25 L 339 25 Z" />
  <path d="M 239 24 Z" />
  <path d="M 719 23 Z" />
  <path d="M 16 23 Z" />
  <path d="M 695 16 Z" />
  <path d="M 591 16 Z" />
  <path d="M 144 16 Z" />
  <path d="M 40 16 Z" />
  <path d="M 663 10 Z" />
  <path d="M 559 10 Z" />
  <path d="M 455 10 Z" />
  <path d="M 384 10 Z" />
  <path d="M 351 10 Z" />
  <path d="M 280 10 Z" />
  <path d="M 176 10 Z" />
  <path d="M 72 10 Z" />
</svg>