<svg xmlns="http://www.w3.org/2000/svg" viewBox="0 0 480 480" fill="deeppink" stroke="none">
  <path d="M 452 447 Z" />
  <path d="M 270 446 L 271 446 Z" />
  <path d="M 176 446 L 177 447 L 177 446 Z" />
  <path d="M 36 446 Z" />
  <path d="M 34 446 L 34 447 Z" />
  <path d="M 450 445 Z" />
  <path d="M 448 445 Z" />
  <path d="M 453 444 Z" />
  <path d="M 270 444 L 271 444 Z" />
  <path d="M 176 444 L 177 444 Z" />
  <path d="M 38 444 L 39 444 Z" />
  <path d="M 178 442 L 179 443 L 179 442 Z" />
  <path d="M 33 442 L 33 443 Z" />
  <path d="M 177 440 Z" />
  <path d="M 34 428 Z" />
  <path d="M 34 425 Z" />
  <path d="M 34 388 Z" />
  <path d="M 34 385 Z" />
  <path d="M 34 348 Z" />
  <path d="M 34 345 Z" />
  <path d="M 34 308 Z" />
  <path d="M 34 305 Z" />
  <path d="M 363 291 Z" />
  <path d="M 34 268 Z" />
  <path d="M 34 265 Z" />
  <path d="M 356 263 Z" />
  <path d="M 353 263 Z" />
  <path d="M 279 262 Z" />
  <path d="M 286 252 Z" />
  <path d="M 283 251 Z" />
  <path d="M 338 247 Z" />
  <path d="M 291 247 Z" />
  <path d="M 291 245 L 292 245 L 293 246 L 294 246 L 295 247 L 294 246 L 293 246 L 292 245 Z" />
  <path d="M 294 244 Z" />
  <path d="M 308 239 Z" />
  <path d="M 301 239 Z" />
  <path d="M 455 228 Z" />
  <path d="M 34 228 Z" />
  <path d="M 453 225 Z" />
  <path d="M 34 225 Z" />
  <path d="M 450 224 L 450 225 Z" />
  <path d="M 446 211 L 446 212 Z" />
  <path d="M 34 188 Z" />
  <path d="M 272 187 Z" />
  <path d="M 34 185 Z" />
  <path d="M 273 184 Z" />
  <path d="M 430 183 Z" />
  <path d="M 428 178 L 428 179 Z" />
  <path d="M 424 177 Z" />
  <path d="M 283 176 Z" />
  <path d="M 280 176 L 281 177 Z" />
  <path d="M 288 171 L 289 172 Z" />
  <path d="M 415 169 Z" />
  <path d="M 413 168 Z" />
  <path d="M 291 168 Z" />
  <path d="M 270 166 Z" />
  <path d="M 33 166 L 33 167 Z" />
  <path d="M 178 165 L 178 167 Z" />
  <path d="M 271 164 Z" />
  <path d="M 35 164 L 35 165 Z" />
  <path d="M 52 163 L 51 164 L 39 164 L 38 165 L 38 166 L 37 167 L 36 167 L 38 169 L 38 180 L 37 181 L 37 183 L 38 184 L 38 220 L 37 221 L 37 223 L 38 224 L 38 260 L 37 261 L 37 263 L 38 264 L 38 300 L 37 301 L 37 303 L 38 304 L 38 340 L 37 341 L 37 343 L 38 344 L 38 380 L 37 381 L 37 383 L 38 384 L 38 420 L 37 421 L 37 423 L 38 424 L 38 439 L 37 440 L 37 441 L 38 441 L 39 442 L 125 442 L 126 441 L 127 441 L 127 435 L 126 434 L 126 433 L 127 432 L 127 431 L 126 430 L 126 419 L 127 418 L 127 417 L 126 416 L 126 414 L 127 413 L 127 411 L 126 410 L 126 400 L 127 399 L 127 391 L 126 390 L 126 378 L 127 377 L 127 376 L 126 375 L 126 374 L 127 373 L 127 371 L 126 370 L 126 360 L 127 359 L 127 351 L 126 350 L 126 338 L 127 337 L 127 336 L 126 335 L 126 334 L 127 333 L 127 331 L 126 330 L 126 320 L 127 319 L 127 311 L 126 310 L 126 299 L 127 298 L 127 297 L 126 296 L 126 294 L 127 293 L 127 291 L 126 290 L 126 280 L 127 279 L 127 271 L 126 270 L 126 258 L 127 257 L 127 256 L 126 255 L 126 254 L 127 253 L 127 251 L 126 250 L 126 240 L 127 239 L 127 231 L 126 230 L 126 217 L 127 216 L 126 215 L 126 214 L 127 213 L 127 212 L 126 211 L 126 200 L 127 199 L 127 191 L 126 190 L 126 178 L 127 177 L 127 176 L 126 175 L 126 166 L 127 165 L 126 165 L 125 164 L 120 164 L 119 163 L 118 163 L 117 164 L 116 163 L 113 163 L 112 164 L 99 164 L 98 163 L 94 163 L 93 164 L 92 163 L 91 164 L 80 164 L 79 163 L 72 163 L 71 164 L 59 164 L 58 163 L 56 163 L 55 164 L 54 163 L 53 164 Z" />
  <path d="M 396 161 L 397 161 Z" />
  <path d="M 38 161 L 37 162 L 37 163 L 37 162 Z" />
  <path d="M 33 161 L 33 162 L 34 162 Z" />
  <path d="M 399 160 Z" />
  <path d="M 296 160 Z" />
  <path d="M 271 160 Z" />
  <path d="M 36 160 Z" />
  <path d="M 381 157 L 383 157 Z" />
  <path d="M 383 155 Z" />
  <path d="M 341 154 L 342 155 L 341 156 L 336 156 L 335 157 L 328 157 L 327 156 L 328 155 L 327 156 L 324 156 L 327 156 L 328 157 L 327 158 L 324 158 L 323 159 L 321 159 L 320 158 L 321 159 L 320 160 L 316 160 L 315 161 L 314 161 L 313 162 L 312 162 L 311 161 L 312 160 L 311 161 L 310 161 L 311 161 L 312 162 L 311 163 L 310 163 L 309 164 L 308 164 L 307 165 L 306 165 L 305 166 L 303 166 L 301 168 L 300 168 L 299 169 L 298 168 L 297 168 L 296 169 L 295 169 L 294 168 L 295 169 L 296 169 L 297 170 L 296 171 L 295 171 L 293 173 L 292 173 L 290 175 L 289 174 L 283 180 L 283 181 L 282 182 L 281 182 L 278 185 L 277 185 L 276 184 L 277 185 L 277 186 L 276 187 L 275 187 L 273 189 L 273 190 L 271 192 L 271 193 L 270 194 L 269 194 L 267 192 L 267 191 L 266 190 L 266 165 L 265 164 L 265 163 L 264 164 L 259 164 L 258 163 L 254 163 L 253 164 L 252 163 L 251 164 L 240 164 L 239 163 L 238 163 L 237 164 L 236 163 L 235 164 L 234 163 L 233 164 L 232 163 L 231 164 L 219 164 L 218 163 L 216 163 L 215 164 L 214 163 L 213 164 L 212 163 L 211 164 L 199 164 L 198 163 L 197 164 L 196 163 L 195 164 L 194 163 L 193 164 L 192 163 L 191 163 L 190 164 L 182 164 L 181 165 L 182 166 L 181 167 L 181 239 L 182 240 L 182 248 L 181 249 L 181 260 L 182 261 L 182 268 L 181 269 L 181 279 L 182 280 L 182 288 L 181 289 L 181 300 L 182 301 L 182 308 L 181 309 L 181 319 L 182 320 L 182 328 L 181 329 L 181 340 L 182 341 L 182 348 L 181 349 L 181 359 L 182 360 L 182 368 L 181 369 L 181 380 L 182 381 L 182 388 L 181 389 L 181 399 L 182 400 L 182 408 L 181 409 L 181 420 L 182 421 L 182 428 L 181 429 L 181 441 L 182 442 L 265 442 L 266 441 L 266 432 L 267 431 L 266 430 L 266 392 L 267 391 L 266 390 L 266 352 L 267 351 L 266 350 L 266 312 L 267 311 L 266 310 L 266 286 L 267 285 L 267 280 L 268 279 L 268 273 L 269 272 L 269 269 L 270 268 L 270 267 L 272 265 L 272 262 L 274 260 L 274 258 L 275 257 L 275 256 L 278 253 L 278 252 L 279 251 L 280 251 L 280 250 L 286 244 L 287 244 L 289 242 L 290 243 L 291 242 L 292 242 L 293 241 L 294 241 L 293 240 L 294 239 L 295 239 L 296 238 L 298 238 L 299 237 L 303 237 L 304 236 L 308 236 L 309 235 L 313 235 L 314 234 L 323 234 L 324 235 L 326 235 L 327 236 L 334 236 L 335 237 L 337 237 L 338 238 L 339 238 L 340 239 L 341 239 L 343 241 L 344 241 L 345 242 L 345 243 L 346 244 L 347 243 L 350 246 L 350 247 L 351 247 L 354 250 L 354 251 L 357 254 L 357 255 L 358 256 L 358 257 L 359 258 L 359 260 L 361 262 L 361 264 L 362 265 L 362 268 L 363 269 L 363 273 L 364 274 L 363 275 L 363 277 L 364 278 L 364 279 L 365 280 L 365 282 L 366 283 L 366 289 L 365 290 L 365 299 L 366 300 L 366 311 L 365 312 L 365 319 L 366 320 L 366 330 L 365 331 L 365 334 L 366 335 L 365 336 L 365 339 L 366 340 L 366 351 L 365 352 L 365 359 L 366 360 L 366 370 L 365 371 L 365 374 L 366 375 L 365 376 L 365 379 L 366 380 L 366 391 L 365 392 L 365 399 L 366 400 L 366 410 L 365 411 L 365 414 L 366 415 L 365 416 L 365 419 L 366 420 L 366 433 L 365 434 L 365 439 L 366 440 L 366 441 L 367 442 L 453 442 L 455 440 L 454 440 L 453 439 L 453 430 L 454 429 L 454 420 L 453 419 L 453 410 L 454 409 L 454 400 L 453 399 L 453 390 L 454 389 L 454 380 L 453 379 L 453 370 L 454 369 L 454 360 L 453 359 L 453 350 L 454 349 L 454 340 L 453 339 L 453 330 L 454 329 L 454 320 L 453 319 L 453 310 L 454 309 L 454 300 L 453 299 L 453 290 L 454 289 L 454 280 L 453 279 L 453 269 L 454 268 L 454 261 L 453 260 L 453 246 L 452 245 L 452 240 L 451 239 L 451 236 L 450 235 L 450 228 L 448 226 L 448 224 L 447 223 L 447 219 L 446 218 L 446 216 L 447 215 L 446 216 L 445 215 L 445 214 L 444 213 L 444 212 L 443 211 L 443 210 L 442 209 L 442 208 L 441 207 L 441 205 L 439 203 L 439 202 L 438 201 L 438 200 L 436 198 L 436 197 L 435 196 L 435 194 L 430 189 L 430 187 L 429 188 L 428 187 L 428 186 L 422 180 L 422 179 L 420 177 L 419 178 L 415 174 L 414 174 L 413 173 L 413 172 L 411 172 L 409 170 L 407 170 L 405 168 L 404 168 L 402 166 L 401 166 L 400 165 L 398 165 L 397 164 L 396 164 L 395 163 L 394 163 L 393 162 L 392 162 L 391 161 L 390 162 L 389 162 L 388 161 L 387 161 L 386 160 L 385 160 L 384 159 L 379 159 L 378 158 L 376 158 L 375 157 L 369 157 L 368 156 L 362 156 L 361 155 L 360 155 L 359 156 L 350 156 L 349 155 L 342 155 Z" />
  <path d="M 368 153 L 367 154 L 365 154 L 367 154 Z" />
  <path d="M 56 126 Z" />
  <path d="M 111 125 Z" />
  <path d="M 51 125 L 52 125 Z" />
  <path d="M 46 119 Z" />
  <path d="M 41 116 Z" />
  <path d="M 125 110 L 125 111 Z" />
  <path d="M 126 108 Z" />
  <path d="M 36 106 L 36 107 Z" />
  <path d="M 134 103 Z" />
  <path d="M 34 103 Z" />
  <path d="M 32 103 Z" />
  <path d="M 130 102 Z" />
  <path d="M 135 101 Z" />
  <path d="M 33 101 Z" />
  <path d="M 132 100 L 132 101 Z" />
  <path d="M 27 79 Z" />
  <path d="M 25 72 L 25 73 Z" />
  <path d="M 135 61 Z" />
  <path d="M 33 49 Z" />
  <path d="M 134 48 Z" />
  <path d="M 35 48 L 35 49 Z" />
  <path d="M 48 33 Z" />
  <path d="M 44 33 Z" />
  <path d="M 40 32 Z" />
  <path d="M 111 29 Z" />
  <path d="M 59 28 Z" />
  <path d="M 56 28 Z" />
  <path d="M 111 26 Z" />
  <path d="M 58 26 Z" />
  <path d="M 71 25 L 69 27 L 67 27 L 66 28 L 63 28 L 62 29 L 61 29 L 60 30 L 59 30 L 58 31 L 57 31 L 56 32 L 55 32 L 53 34 L 52 34 L 50 36 L 49 36 L 44 41 L 44 42 L 40 46 L 39 46 L 39 47 L 37 49 L 37 51 L 36 52 L 36 53 L 35 54 L 35 56 L 34 57 L 34 58 L 32 60 L 32 61 L 31 62 L 31 68 L 30 69 L 30 73 L 29 74 L 28 73 L 28 72 L 28 73 L 29 74 L 29 79 L 30 80 L 30 86 L 31 87 L 31 89 L 32 90 L 32 92 L 33 93 L 33 95 L 34 96 L 34 98 L 35 99 L 35 100 L 36 101 L 36 102 L 37 103 L 37 104 L 38 105 L 38 106 L 42 110 L 41 111 L 42 111 L 43 112 L 42 113 L 44 115 L 46 115 L 47 116 L 48 116 L 49 117 L 50 117 L 52 119 L 51 120 L 51 121 L 52 122 L 53 122 L 54 123 L 55 123 L 56 122 L 57 122 L 58 123 L 57 124 L 58 124 L 59 123 L 60 124 L 61 124 L 62 125 L 63 125 L 64 126 L 65 125 L 66 126 L 68 126 L 69 127 L 70 127 L 71 128 L 77 128 L 78 129 L 79 129 L 80 128 L 94 128 L 95 127 L 96 127 L 97 126 L 99 126 L 100 125 L 101 125 L 102 124 L 103 124 L 104 123 L 105 123 L 106 122 L 107 122 L 108 121 L 109 121 L 111 123 L 110 122 L 111 121 L 111 120 L 113 118 L 115 118 L 115 117 L 119 113 L 120 113 L 122 111 L 122 110 L 123 109 L 123 108 L 126 105 L 126 104 L 127 103 L 127 102 L 128 101 L 128 100 L 129 99 L 129 98 L 130 97 L 130 96 L 131 95 L 131 92 L 132 91 L 132 90 L 133 89 L 133 87 L 134 86 L 134 74 L 133 73 L 133 68 L 134 67 L 133 66 L 133 64 L 134 63 L 133 64 L 132 63 L 132 62 L 133 61 L 131 59 L 131 57 L 130 57 L 129 56 L 129 51 L 128 52 L 127 51 L 127 50 L 124 47 L 124 46 L 119 41 L 119 40 L 118 40 L 117 39 L 118 38 L 117 39 L 113 35 L 112 35 L 111 34 L 110 34 L 108 32 L 107 32 L 106 31 L 107 30 L 108 30 L 107 30 L 106 31 L 105 30 L 103 30 L 102 29 L 101 29 L 99 27 L 96 27 L 95 26 L 94 26 L 93 25 L 90 25 L 89 26 L 80 26 L 79 25 L 73 25 L 72 26 Z" />
  <path d="M 57 24 Z" />
</svg>