<?xml version="1.0" encoding="utf-8" ?>
<svg baseProfile="tiny" height="480" version="1.2" width="480" xmlns="http://www.w3.org/2000/svg" xmlns:ev="http://www.w3.org/2001/xml-events" xmlns:xlink="http://www.w3.org/1999/xlink"><defs /><path d="M 242,132 L 241,133 L 239,133 L 237,135 L 236,135 L 233,138 L 233,139 L 232,140 L 232,142 L 231,143 L 231,149 L 232,150 L 232,152 L 233,153 L 233,154 L 236,157 L 237,157 L 239,159 L 242,159 L 243,160 L 255,160 L 256,161 L 260,161 L 261,162 L 264,162 L 265,163 L 267,163 L 268,164 L 270,164 L 271,165 L 272,165 L 273,166 L 275,166 L 276,167 L 277,167 L 278,168 L 279,168 L 281,170 L 282,170 L 283,171 L 284,171 L 286,173 L 287,173 L 290,176 L 291,176 L 302,187 L 302,188 L 304,190 L 304,191 L 306,193 L 306,194 L 308,196 L 308,197 L 309,198 L 309,199 L 310,200 L 310,201 L 311,202 L 311,203 L 312,204 L 312,205 L 313,206 L 313,208 L 314,209 L 314,211 L 315,212 L 315,214 L 316,215 L 316,218 L 317,219 L 317,226 L 318,227 L 318,237 L 319,238 L 319,239 L 320,240 L 320,241 L 323,244 L 324,244 L 326,246 L 329,246 L 330,247 L 333,247 L 334,246 L 337,246 L 338,245 L 339,245 L 343,241 L 343,240 L 344,239 L 344,238 L 345,237 L 345,220 L 344,219 L 344,214 L 343,213 L 343,209 L 342,208 L 342,206 L 341,205 L 341,202 L 340,201 L 340,199 L 339,198 L 339,197 L 338,196 L 338,194 L 337,193 L 337,192 L 336,191 L 336,190 L 335,189 L 335,188 L 334,187 L 334,186 L 333,185 L 333,184 L 332,183 L 332,182 L 330,180 L 330,179 L 329,178 L 329,177 L 326,174 L 326,173 L 323,170 L 323,169 L 309,155 L 308,155 L 305,152 L 304,152 L 301,149 L 300,149 L 298,147 L 297,147 L 296,146 L 295,146 L 294,145 L 293,145 L 291,143 L 290,143 L 289,142 L 288,142 L 287,141 L 285,141 L 284,140 L 283,140 L 282,139 L 280,139 L 279,138 L 278,138 L 277,137 L 274,137 L 273,136 L 271,136 L 270,135 L 267,135 L 266,134 L 261,134 L 260,133 L 253,133 L 252,132 Z" fill="none" stroke="deeppink" stroke-width="4" /><path d="M 142,119 L 141,120 L 137,120 L 136,121 L 134,121 L 133,122 L 131,122 L 130,123 L 129,123 L 128,124 L 127,124 L 126,125 L 125,125 L 124,126 L 123,126 L 120,129 L 119,129 L 108,140 L 108,141 L 102,147 L 102,148 L 96,154 L 96,155 L 94,157 L 94,158 L 92,160 L 92,162 L 91,163 L 91,164 L 90,165 L 90,167 L 89,168 L 89,170 L 88,171 L 88,174 L 87,175 L 87,181 L 86,182 L 86,194 L 87,195 L 87,200 L 88,201 L 88,206 L 89,207 L 89,210 L 90,211 L 90,214 L 91,215 L 91,218 L 92,219 L 92,222 L 93,223 L 93,225 L 94,226 L 94,228 L 95,229 L 95,231 L 96,232 L 96,234 L 97,235 L 97,237 L 98,238 L 98,240 L 99,241 L 99,242 L 100,243 L 100,245 L 101,246 L 101,247 L 102,248 L 102,250 L 103,251 L 103,252 L 104,253 L 104,254 L 105,255 L 105,256 L 106,257 L 106,258 L 107,259 L 107,261 L 109,263 L 109,264 L 110,265 L 110,267 L 112,269 L 112,270 L 113,271 L 113,272 L 114,273 L 114,274 L 116,276 L 116,277 L 117,278 L 117,279 L 118,280 L 118,281 L 120,283 L 120,284 L 122,286 L 122,287 L 124,289 L 124,290 L 126,292 L 126,293 L 129,296 L 129,297 L 131,299 L 131,300 L 135,304 L 135,305 L 139,309 L 139,310 L 146,317 L 146,318 L 158,330 L 159,330 L 167,338 L 168,338 L 173,343 L 174,343 L 177,346 L 178,346 L 181,349 L 182,349 L 185,352 L 186,352 L 188,354 L 189,354 L 191,356 L 192,356 L 194,358 L 195,358 L 196,359 L 197,359 L 199,361 L 200,361 L 201,362 L 202,362 L 203,363 L 204,363 L 206,365 L 207,365 L 208,366 L 209,366 L 210,367 L 211,367 L 212,368 L 213,368 L 214,369 L 215,369 L 217,371 L 219,371 L 220,372 L 221,372 L 222,373 L 223,373 L 224,374 L 225,374 L 226,375 L 227,375 L 228,376 L 229,376 L 230,377 L 232,377 L 233,378 L 235,378 L 236,379 L 237,379 L 238,380 L 240,380 L 241,381 L 243,381 L 244,382 L 246,382 L 247,383 L 249,383 L 250,384 L 252,384 L 253,385 L 255,385 L 256,386 L 259,386 L 260,387 L 263,387 L 264,388 L 267,388 L 268,389 L 271,389 L 272,390 L 276,390 L 277,391 L 282,391 L 283,392 L 287,392 L 288,393 L 297,393 L 298,394 L 316,394 L 317,393 L 322,393 L 323,392 L 326,392 L 327,391 L 329,391 L 330,390 L 331,390 L 332,389 L 334,389 L 335,388 L 336,388 L 337,387 L 338,387 L 340,385 L 341,385 L 342,384 L 343,384 L 346,381 L 347,381 L 352,376 L 352,375 L 361,366 L 361,365 L 364,362 L 364,361 L 367,358 L 367,357 L 368,356 L 368,354 L 369,353 L 369,352 L 370,351 L 370,349 L 371,348 L 371,345 L 372,344 L 372,339 L 373,338 L 373,330 L 372,329 L 372,324 L 371,323 L 371,320 L 370,319 L 370,317 L 369,316 L 369,315 L 368,314 L 368,313 L 367,312 L 367,311 L 366,310 L 366,309 L 364,307 L 364,306 L 361,303 L 361,302 L 357,298 L 356,298 L 346,288 L 345,288 L 339,282 L 338,282 L 336,280 L 335,280 L 333,278 L 332,278 L 331,277 L 330,277 L 329,276 L 327,276 L 326,275 L 324,275 L 323,274 L 320,274 L 319,273 L 313,273 L 312,272 L 308,272 L 307,273 L 300,273 L 299,274 L 296,274 L 295,275 L 293,275 L 292,276 L 291,276 L 290,277 L 288,277 L 286,279 L 285,279 L 284,280 L 283,280 L 280,283 L 279,283 L 271,291 L 271,292 L 263,300 L 263,301 L 261,303 L 261,304 L 259,306 L 259,307 L 258,308 L 258,309 L 256,311 L 255,310 L 254,310 L 253,309 L 252,309 L 251,308 L 249,308 L 248,307 L 247,307 L 246,306 L 245,306 L 244,305 L 243,305 L 241,303 L 240,303 L 239,302 L 238,302 L 237,301 L 236,301 L 234,299 L 233,299 L 231,297 L 230,297 L 228,295 L 227,295 L 225,293 L 224,293 L 221,290 L 220,290 L 216,286 L 215,286 L 210,281 L 209,281 L 197,269 L 197,268 L 192,263 L 192,262 L 188,258 L 188,257 L 185,254 L 185,253 L 183,251 L 183,250 L 181,248 L 181,247 L 179,245 L 179,244 L 178,243 L 178,242 L 176,240 L 176,239 L 175,238 L 175,237 L 174,236 L 174,235 L 175,234 L 176,234 L 177,233 L 178,233 L 180,231 L 181,231 L 182,230 L 183,230 L 188,225 L 189,225 L 192,222 L 192,221 L 201,212 L 201,211 L 203,209 L 203,208 L 205,206 L 205,205 L 207,203 L 207,202 L 208,201 L 208,199 L 209,198 L 209,197 L 210,196 L 210,193 L 211,192 L 211,188 L 212,187 L 212,174 L 211,173 L 211,169 L 210,168 L 210,166 L 209,165 L 209,163 L 208,162 L 208,160 L 207,159 L 207,158 L 205,156 L 205,155 L 204,154 L 204,153 L 199,148 L 199,147 L 196,144 L 195,144 L 187,136 L 186,136 L 179,129 L 178,129 L 175,126 L 174,126 L 173,125 L 172,125 L 171,124 L 170,124 L 169,123 L 168,123 L 167,122 L 165,122 L 164,121 L 162,121 L 161,120 L 157,120 L 156,119 Z" fill="none" stroke="deeppink" stroke-width="4" /><path d="M 243,85 L 242,86 L 240,86 L 239,87 L 238,87 L 235,90 L 235,91 L 234,92 L 234,93 L 233,94 L 233,103 L 234,104 L 234,105 L 235,106 L 235,107 L 238,110 L 239,110 L 240,111 L 241,111 L 242,112 L 246,112 L 247,113 L 248,112 L 250,112 L 251,113 L 262,113 L 263,114 L 268,114 L 269,115 L 273,115 L 274,116 L 277,116 L 278,117 L 280,117 L 281,118 L 283,118 L 284,119 L 286,119 L 287,120 L 289,120 L 290,121 L 291,121 L 292,122 L 293,122 L 294,123 L 296,123 L 297,124 L 298,124 L 299,125 L 300,125 L 301,126 L 302,126 L 303,127 L 304,127 L 306,129 L 307,129 L 308,130 L 309,130 L 311,132 L 312,132 L 314,134 L 315,134 L 318,137 L 319,137 L 324,142 L 325,142 L 336,153 L 336,154 L 340,158 L 340,159 L 344,163 L 344,164 L 345,165 L 345,166 L 347,168 L 347,169 L 349,171 L 349,172 L 350,173 L 350,174 L 352,176 L 352,178 L 353,179 L 353,180 L 354,181 L 354,182 L 355,183 L 355,184 L 356,185 L 356,186 L 357,187 L 357,189 L 358,190 L 358,191 L 359,192 L 359,194 L 360,195 L 360,198 L 361,199 L 361,201 L 362,202 L 362,205 L 363,206 L 363,210 L 364,211 L 364,218 L 365,219 L 365,234 L 366,235 L 366,237 L 367,238 L 367,239 L 371,243 L 372,243 L 373,244 L 374,244 L 375,245 L 383,245 L 384,244 L 385,244 L 386,243 L 387,243 L 391,239 L 391,238 L 392,237 L 392,234 L 393,233 L 393,223 L 392,222 L 392,213 L 391,212 L 391,206 L 390,205 L 390,201 L 389,200 L 389,197 L 388,196 L 388,193 L 387,192 L 387,189 L 386,188 L 386,186 L 385,185 L 385,183 L 384,182 L 384,180 L 383,179 L 383,178 L 382,177 L 382,175 L 381,174 L 381,173 L 380,172 L 380,171 L 379,170 L 379,169 L 378,168 L 378,167 L 377,166 L 377,165 L 376,164 L 376,163 L 375,162 L 375,161 L 374,160 L 374,159 L 373,158 L 373,157 L 371,155 L 371,154 L 369,152 L 369,151 L 367,149 L 367,148 L 365,146 L 365,145 L 362,142 L 362,141 L 359,138 L 359,137 L 342,120 L 341,120 L 336,115 L 335,115 L 332,112 L 331,112 L 329,110 L 328,110 L 326,108 L 325,108 L 324,107 L 323,107 L 321,105 L 320,105 L 319,104 L 318,104 L 316,102 L 315,102 L 314,101 L 313,101 L 312,100 L 311,100 L 310,99 L 309,99 L 308,98 L 306,98 L 305,97 L 304,97 L 303,96 L 302,96 L 301,95 L 299,95 L 298,94 L 296,94 L 295,93 L 294,93 L 293,92 L 290,92 L 289,91 L 287,91 L 286,90 L 283,90 L 282,89 L 280,89 L 279,88 L 275,88 L 274,87 L 269,87 L 268,86 L 260,86 L 259,85 Z" fill="none" stroke="deeppink" stroke-width="4" /></svg>