<svg xmlns="http://www.w3.org/2000/svg" viewBox="0 0 735 752" fill="deeppink" stroke="none">
  <path d="M 725 736 L 725 751 L 734 751 L 734 736 Z" />
  <path d="M 687 736 L 687 751 L 703 751 L 703 736 Z" />
  <path d="M 652 736 L 652 751 L 668 751 L 668 736 Z" />
  <path d="M 617 736 L 617 751 L 633 751 L 633 736 Z" />
  <path d="M 547 736 L 547 751 L 563 751 L 563 736 Z" />
  <path d="M 510 736 L 510 751 L 525 751 L 525 736 Z" />
  <path d="M 475 736 L 475 751 L 490 751 L 490 736 Z" />
  <path d="M 440 736 L 440 751 L 455 751 L 455 736 Z" />
  <path d="M 405 736 L 405 751 L 420 751 L 420 736 Z" />
  <path d="M 370 736 L 370 751 L 385 751 L 385 736 Z" />
  <path d="M 334 736 L 334 751 L 350 751 L 350 736 Z" />
  <path d="M 299 736 L 299 751 L 315 751 L 315 736 Z" />
  <path d="M 264 736 L 264 751 L 280 751 L 280 736 Z" />
  <path d="M 194 736 L 194 751 L 209 751 L 209 736 Z" />
  <path d="M 88 736 L 88 751 L 104 751 L 104 736 Z" />
  <path d="M 53 736 L 53 751 L 69 751 L 69 736 Z" />
  <path d="M 18 736 L 18 751 L 33 751 L 33 736 Z" />
  <path d="M 231 735 L 230 736 L 229 736 L 229 751 L 245 751 L 245 744 L 244 743 L 244 736 L 232 736 Z" />
  <path d="M 125 735 L 124 736 L 123 736 L 123 751 L 139 751 L 139 736 L 126 736 Z" />
  <path d="M 705 718 L 705 734 L 723 734 L 723 719 L 722 718 L 712 718 L 711 719 L 710 718 L 709 718 L 708 719 L 707 719 L 706 718 Z" />
  <path d="M 670 718 L 670 734 L 686 734 L 685 733 L 685 732 L 686 731 L 686 730 L 685 729 L 685 728 L 686 727 L 686 720 L 685 719 L 685 718 L 683 718 L 682 719 L 681 718 Z" />
  <path d="M 636 718 L 635 719 L 635 734 L 636 733 L 637 733 L 638 734 L 650 734 L 651 733 L 650 732 L 651 731 L 651 728 L 650 727 L 650 718 Z" />
  <path d="M 600 718 L 600 734 L 598 736 L 582 736 L 582 751 L 598 751 L 598 736 L 600 734 L 615 734 L 615 733 L 616 732 L 615 731 L 615 730 L 616 729 L 615 728 L 616 727 L 616 720 L 615 719 L 615 718 Z" />
  <path d="M 565 718 L 565 734 L 581 734 L 580 733 L 580 732 L 581 731 L 580 730 L 580 729 L 581 728 L 580 727 L 580 720 L 581 719 L 580 719 L 579 718 Z" />
  <path d="M 528 718 L 527 719 L 527 730 L 528 731 L 527 732 L 527 733 L 528 734 L 546 734 L 545 733 L 545 718 Z" />
  <path d="M 493 718 L 492 719 L 492 734 L 507 734 L 508 733 L 508 732 L 507 731 L 507 730 L 508 729 L 508 719 L 507 718 Z" />
  <path d="M 458 718 L 458 719 L 457 720 L 457 734 L 458 734 L 459 733 L 460 734 L 473 734 L 473 719 L 472 718 Z" />
  <path d="M 424 718 L 422 720 L 422 734 L 435 734 L 436 733 L 437 734 L 438 734 L 438 720 L 437 719 L 437 718 Z" />
  <path d="M 388 718 L 387 719 L 387 729 L 388 730 L 388 731 L 387 732 L 387 733 L 388 734 L 403 734 L 403 719 L 402 718 Z" />
  <path d="M 352 718 L 351 719 L 351 730 L 352 731 L 351 732 L 351 733 L 352 734 L 367 734 L 368 733 L 368 732 L 367 731 L 368 730 L 368 719 L 367 718 Z" />
  <path d="M 317 718 L 317 719 L 316 720 L 316 734 L 332 734 L 332 719 L 331 718 Z" />
  <path d="M 282 718 L 282 719 L 281 720 L 281 731 L 282 732 L 281 733 L 281 734 L 297 734 L 297 718 Z" />
  <path d="M 247 718 L 247 719 L 246 720 L 246 733 L 247 734 L 262 734 L 262 718 Z" />
  <path d="M 213 718 L 212 719 L 211 719 L 211 729 L 212 730 L 212 731 L 211 732 L 211 733 L 212 734 L 227 734 L 227 718 Z" />
  <path d="M 176 718 L 175 719 L 175 729 L 176 730 L 175 731 L 175 733 L 176 734 L 174 736 L 158 736 L 158 751 L 174 751 L 174 736 L 176 734 L 191 734 L 192 733 L 192 719 L 191 718 Z" />
  <path d="M 141 718 L 141 719 L 140 720 L 140 734 L 156 734 L 156 719 L 155 718 Z" />
  <path d="M 106 718 L 106 719 L 105 720 L 105 728 L 106 729 L 105 730 L 105 731 L 106 732 L 105 733 L 105 734 L 106 734 L 107 733 L 108 734 L 121 734 L 121 718 L 110 718 L 109 719 L 108 718 Z" />
  <path d="M 71 718 L 71 719 L 70 720 L 70 733 L 71 733 L 72 734 L 86 734 L 86 718 L 85 718 L 84 719 L 83 719 L 82 718 L 81 718 L 80 719 L 79 718 Z" />
  <path d="M 37 718 L 35 720 L 35 727 L 36 728 L 36 730 L 35 731 L 35 732 L 36 733 L 36 734 L 51 734 L 51 719 L 50 718 Z" />
  <path d="M 0 718 L 0 734 L 15 734 L 16 733 L 16 719 L 15 718 Z" />
  <path d="M 725 701 L 725 716 L 726 717 L 727 716 L 734 716 L 734 701 Z" />
  <path d="M 688 701 L 687 702 L 687 715 L 688 716 L 703 716 L 703 701 Z" />
  <path d="M 653 701 L 653 703 L 652 704 L 652 711 L 653 712 L 653 716 L 654 717 L 655 717 L 656 716 L 666 716 L 667 717 L 668 716 L 668 701 Z" />
  <path d="M 618 701 L 618 702 L 617 703 L 617 712 L 618 713 L 618 715 L 617 716 L 631 716 L 632 717 L 633 716 L 632 715 L 633 714 L 633 713 L 632 712 L 633 711 L 633 701 Z" />
  <path d="M 582 701 L 582 702 L 583 703 L 582 704 L 582 711 L 583 712 L 582 713 L 583 714 L 583 715 L 582 716 L 583 717 L 584 716 L 598 716 L 598 715 L 597 714 L 598 713 L 598 701 Z" />
  <path d="M 548 701 L 547 702 L 548 703 L 547 704 L 547 716 L 548 717 L 549 716 L 560 716 L 561 717 L 562 717 L 563 716 L 563 701 Z" />
  <path d="M 510 701 L 510 716 L 525 716 L 525 701 Z" />
  <path d="M 475 701 L 475 716 L 476 717 L 477 716 L 487 716 L 488 717 L 489 717 L 490 716 L 490 701 Z" />
  <path d="M 440 701 L 440 713 L 439 714 L 439 715 L 440 716 L 455 716 L 456 715 L 456 714 L 455 713 L 455 701 Z" />
  <path d="M 405 701 L 405 716 L 406 717 L 407 717 L 408 716 L 417 716 L 418 717 L 419 717 L 420 716 L 420 701 Z" />
  <path d="M 370 701 L 370 716 L 385 716 L 385 701 Z" />
  <path d="M 334 701 L 334 716 L 349 716 L 349 712 L 350 711 L 350 704 L 349 703 L 349 701 Z" />
  <path d="M 299 701 L 299 716 L 300 716 L 301 717 L 302 716 L 311 716 L 312 717 L 313 717 L 314 716 L 314 701 Z" />
  <path d="M 264 701 L 264 716 L 279 716 L 280 715 L 280 714 L 279 713 L 279 712 L 280 711 L 280 704 L 279 703 L 279 701 Z" />
  <path d="M 229 701 L 229 716 L 230 716 L 231 717 L 232 716 L 242 716 L 243 717 L 245 715 L 244 714 L 244 704 L 245 703 L 244 702 L 244 701 Z" />
  <path d="M 194 701 L 194 716 L 209 716 L 209 714 L 210 713 L 209 712 L 209 704 L 210 703 L 209 702 L 209 701 Z" />
  <path d="M 158 701 L 158 714 L 159 715 L 158 716 L 159 717 L 160 716 L 173 716 L 173 714 L 174 713 L 173 712 L 174 711 L 174 704 L 173 703 L 173 701 Z" />
  <path d="M 88 701 L 88 716 L 103 716 L 104 715 L 104 714 L 103 713 L 103 712 L 104 711 L 104 704 L 103 703 L 104 702 L 103 701 Z" />
  <path d="M 53 701 L 53 716 L 54 717 L 55 716 L 66 716 L 67 717 L 68 717 L 69 716 L 69 715 L 68 714 L 68 712 L 69 711 L 69 702 L 68 701 Z" />
  <path d="M 18 701 L 18 716 L 19 717 L 20 717 L 21 716 L 31 716 L 32 717 L 33 716 L 33 714 L 34 713 L 34 712 L 33 711 L 33 704 L 34 703 L 33 702 L 33 701 Z" />
  <path d="M 138 700 L 137 701 L 123 701 L 123 716 L 135 716 L 136 717 L 137 717 L 138 716 L 138 712 L 139 711 L 139 701 Z" />
  <path d="M 704 683 L 704 684 L 705 685 L 705 697 L 704 698 L 704 699 L 722 699 L 723 698 L 723 684 L 722 683 Z" />
  <path d="M 671 683 L 670 684 L 670 696 L 671 697 L 670 698 L 670 699 L 685 699 L 685 696 L 686 695 L 686 688 L 685 687 L 685 683 Z" />
  <path d="M 636 683 L 635 684 L 635 699 L 650 699 L 650 683 L 640 683 L 639 684 L 638 683 Z" />
  <path d="M 600 683 L 600 699 L 615 699 L 615 698 L 616 697 L 615 696 L 616 695 L 616 688 L 615 687 L 615 683 Z" />
  <path d="M 565 683 L 565 699 L 580 699 L 581 698 L 580 697 L 580 683 Z" />
  <path d="M 528 683 L 527 684 L 527 698 L 528 699 L 545 699 L 545 697 L 546 696 L 545 695 L 545 684 L 544 683 Z" />
  <path d="M 493 683 L 492 684 L 492 698 L 493 699 L 507 699 L 508 698 L 508 697 L 507 696 L 508 695 L 508 684 L 507 683 L 505 683 L 504 684 L 503 683 Z" />
  <path d="M 458 683 L 457 684 L 458 685 L 457 686 L 457 696 L 458 697 L 457 698 L 457 699 L 472 699 L 473 698 L 473 688 L 472 687 L 472 686 L 473 685 L 473 684 L 472 683 L 462 683 L 461 684 L 460 683 Z" />
  <path d="M 423 683 L 422 684 L 422 698 L 423 699 L 438 699 L 438 698 L 437 697 L 438 696 L 438 686 L 437 685 L 438 684 L 437 683 L 435 683 L 434 684 L 433 683 Z" />
  <path d="M 388 683 L 387 684 L 387 695 L 388 696 L 387 697 L 387 698 L 388 699 L 402 699 L 403 698 L 403 685 L 402 684 L 402 683 L 392 683 L 391 684 L 390 683 Z" />
  <path d="M 352 683 L 351 684 L 351 685 L 352 686 L 351 687 L 351 695 L 352 696 L 351 697 L 351 698 L 352 699 L 367 699 L 368 698 L 368 684 L 367 683 Z" />
  <path d="M 317 683 L 317 687 L 316 688 L 316 695 L 317 696 L 317 699 L 331 699 L 332 698 L 332 684 L 331 683 L 329 683 L 328 684 L 327 683 Z" />
  <path d="M 282 683 L 282 685 L 281 686 L 282 687 L 281 688 L 281 696 L 282 697 L 282 699 L 296 699 L 297 698 L 297 684 L 296 683 Z" />
  <path d="M 247 683 L 247 687 L 246 688 L 246 695 L 247 696 L 246 697 L 246 698 L 247 699 L 262 699 L 262 684 L 261 683 Z" />
  <path d="M 213 683 L 212 684 L 212 686 L 211 687 L 211 695 L 212 696 L 211 697 L 211 698 L 212 699 L 226 699 L 227 698 L 227 684 L 226 683 Z" />
  <path d="M 176 683 L 175 684 L 175 685 L 176 686 L 175 687 L 175 695 L 176 696 L 175 697 L 176 698 L 176 699 L 191 699 L 192 698 L 192 684 L 191 683 Z" />
  <path d="M 141 683 L 141 687 L 140 688 L 140 698 L 141 699 L 155 699 L 156 698 L 156 684 L 155 683 L 153 683 L 152 684 L 151 683 Z" />
  <path d="M 106 683 L 106 687 L 105 688 L 105 696 L 106 697 L 106 699 L 121 699 L 121 684 L 120 683 Z" />
  <path d="M 71 683 L 71 687 L 70 688 L 70 695 L 71 696 L 71 699 L 87 699 L 86 698 L 86 684 L 85 683 Z" />
  <path d="M 37 683 L 36 684 L 36 696 L 35 697 L 36 698 L 36 699 L 50 699 L 51 698 L 51 684 L 50 683 Z" />
  <path d="M 0 683 L 0 699 L 15 699 L 16 698 L 16 684 L 15 683 Z" />
  <path d="M 725 666 L 725 681 L 726 682 L 727 682 L 728 681 L 734 681 L 734 666 Z" />
  <path d="M 687 666 L 687 680 L 688 681 L 703 681 L 703 666 Z" />
  <path d="M 652 666 L 652 668 L 653 669 L 652 670 L 652 681 L 663 681 L 664 682 L 665 681 L 668 681 L 668 666 Z" />
  <path d="M 618 666 L 618 668 L 617 669 L 617 670 L 618 671 L 617 672 L 617 679 L 618 680 L 617 681 L 620 681 L 621 682 L 622 682 L 623 681 L 633 681 L 633 666 Z" />
  <path d="M 583 666 L 582 667 L 583 668 L 583 671 L 582 672 L 582 681 L 596 681 L 597 682 L 598 681 L 597 680 L 598 679 L 598 666 Z" />
  <path d="M 548 666 L 547 667 L 547 668 L 548 669 L 547 670 L 547 680 L 548 681 L 550 681 L 551 682 L 552 681 L 559 681 L 560 682 L 561 681 L 563 681 L 563 666 Z" />
  <path d="M 510 666 L 510 681 L 520 681 L 521 682 L 522 681 L 525 681 L 525 666 Z" />
  <path d="M 475 666 L 475 670 L 474 671 L 475 672 L 475 681 L 487 681 L 488 682 L 489 682 L 490 681 L 490 668 L 491 667 L 490 666 Z" />
  <path d="M 440 666 L 439 667 L 440 668 L 440 679 L 439 680 L 440 681 L 455 681 L 456 680 L 455 679 L 455 668 L 456 667 L 455 666 Z" />
  <path d="M 405 666 L 404 667 L 405 668 L 405 681 L 406 681 L 407 682 L 408 681 L 415 681 L 416 682 L 417 681 L 420 681 L 420 666 Z" />
  <path d="M 370 666 L 370 681 L 373 681 L 374 682 L 375 681 L 385 681 L 385 666 Z" />
  <path d="M 334 666 L 334 681 L 350 681 L 349 680 L 350 679 L 350 671 L 349 670 L 349 666 Z" />
  <path d="M 299 666 L 299 681 L 302 681 L 303 682 L 304 681 L 311 681 L 312 682 L 313 682 L 314 681 L 314 680 L 315 679 L 315 671 L 314 670 L 314 669 L 315 668 L 315 666 Z" />
  <path d="M 264 666 L 264 681 L 279 681 L 280 680 L 279 679 L 279 672 L 280 671 L 280 670 L 279 669 L 280 668 L 280 667 L 279 666 Z" />
  <path d="M 194 666 L 194 681 L 209 681 L 209 666 Z" />
  <path d="M 158 666 L 158 681 L 168 681 L 169 682 L 170 682 L 171 681 L 173 681 L 173 680 L 174 679 L 174 671 L 173 670 L 173 666 Z" />
  <path d="M 123 666 L 123 681 L 135 681 L 136 682 L 137 682 L 138 681 L 138 680 L 139 679 L 139 670 L 138 669 L 139 668 L 139 666 Z" />
  <path d="M 88 666 L 88 681 L 103 681 L 104 680 L 104 670 L 103 669 L 104 668 L 104 666 Z" />
  <path d="M 53 666 L 53 681 L 54 682 L 55 682 L 56 681 L 68 681 L 69 680 L 69 672 L 68 671 L 68 670 L 69 669 L 69 667 L 68 666 Z" />
  <path d="M 18 666 L 18 681 L 33 681 L 33 672 L 34 671 L 33 670 L 33 666 Z" />
  <path d="M 241 665 L 240 666 L 229 666 L 229 681 L 230 682 L 231 681 L 244 681 L 244 669 L 245 668 L 245 667 L 244 666 L 242 666 Z" />
  <path d="M 705 648 L 705 663 L 704 664 L 722 664 L 723 663 L 723 648 Z" />
  <path d="M 600 648 L 600 664 L 615 664 L 616 663 L 616 648 Z" />
  <path d="M 565 648 L 565 664 L 580 664 L 580 648 Z" />
  <path d="M 527 648 L 527 664 L 545 664 L 545 648 Z" />
  <path d="M 492 648 L 492 664 L 508 664 L 508 648 Z" />
  <path d="M 457 648 L 457 664 L 472 664 L 473 663 L 473 648 Z" />
  <path d="M 422 648 L 422 663 L 423 664 L 438 664 L 438 648 Z" />
  <path d="M 387 648 L 387 664 L 403 664 L 403 648 Z" />
  <path d="M 351 648 L 351 664 L 368 664 L 368 648 Z" />
  <path d="M 316 648 L 316 663 L 317 664 L 332 664 L 332 648 Z" />
  <path d="M 281 648 L 281 663 L 282 664 L 296 664 L 297 663 L 297 648 Z" />
  <path d="M 246 648 L 246 663 L 247 664 L 262 664 L 262 648 Z" />
  <path d="M 211 648 L 211 664 L 226 664 L 227 663 L 227 648 Z" />
  <path d="M 175 648 L 175 664 L 192 664 L 192 648 Z" />
  <path d="M 36 648 L 36 664 L 50 664 L 51 663 L 51 648 Z" />
  <path d="M 0 648 L 0 664 L 15 664 L 16 663 L 16 648 Z" />
  <path d="M 725 631 L 725 647 L 727 647 L 728 646 L 734 646 L 734 631 Z" />
  <path d="M 688 631 L 687 632 L 687 647 L 686 648 L 670 648 L 670 664 L 685 664 L 686 663 L 686 648 L 688 646 L 703 646 L 703 631 Z" />
  <path d="M 652 631 L 652 647 L 651 648 L 635 648 L 635 663 L 636 664 L 650 664 L 650 656 L 651 655 L 651 648 L 652 647 L 653 647 L 654 646 L 663 646 L 664 647 L 668 647 L 668 631 Z" />
  <path d="M 123 631 L 123 647 L 126 647 L 127 646 L 135 646 L 136 647 L 137 646 L 138 647 L 139 647 L 140 648 L 140 663 L 141 664 L 155 664 L 156 663 L 156 648 L 140 648 L 139 647 L 139 632 L 138 631 Z" />
  <path d="M 88 631 L 88 646 L 103 646 L 105 648 L 105 663 L 106 664 L 120 664 L 121 663 L 121 648 L 105 648 L 104 647 L 104 631 Z" />
  <path d="M 53 631 L 53 647 L 55 647 L 56 646 L 63 646 L 64 647 L 66 647 L 66 645 L 67 644 L 68 645 L 68 647 L 69 647 L 70 648 L 70 663 L 71 664 L 85 664 L 86 663 L 86 648 L 70 648 L 69 647 L 69 632 L 68 631 Z" />
  <path d="M 18 631 L 18 646 L 19 647 L 20 646 L 32 646 L 33 647 L 33 646 L 34 645 L 34 640 L 33 639 L 33 631 Z" />
  <path d="M 618 630 L 617 631 L 617 646 L 618 647 L 619 646 L 620 647 L 621 646 L 622 646 L 623 647 L 624 646 L 631 646 L 632 647 L 633 647 L 633 632 L 632 631 L 627 631 L 626 630 L 624 630 L 623 631 L 621 631 L 620 632 Z" />
  <path d="M 583 630 L 583 631 L 582 632 L 582 647 L 583 647 L 584 646 L 591 646 L 592 647 L 593 646 L 594 647 L 595 647 L 596 646 L 597 647 L 598 647 L 598 632 L 597 631 L 592 631 L 591 630 L 586 630 L 585 631 L 584 631 Z" />
  <path d="M 705 613 L 704 614 L 705 615 L 705 629 L 722 629 L 723 628 L 723 614 L 722 613 L 709 613 L 708 614 L 707 613 Z" />
  <path d="M 36 613 L 36 614 L 35 615 L 36 616 L 36 623 L 35 624 L 36 625 L 36 627 L 35 628 L 36 629 L 50 629 L 51 628 L 51 614 L 49 614 L 48 613 Z" />
  <path d="M 0 613 L 0 629 L 15 629 L 16 628 L 16 613 Z" />
  <path d="M 725 596 L 725 611 L 734 611 L 734 596 Z" />
  <path d="M 23 595 L 22 596 L 18 596 L 18 611 L 22 611 L 23 612 L 24 611 L 33 611 L 34 610 L 34 609 L 33 608 L 33 600 L 34 599 L 34 596 L 24 596 Z" />
  <path d="M 0 578 L 0 594 L 15 594 L 16 593 L 16 579 L 15 578 Z" />
  <path d="M 725 560 L 725 576 L 734 576 L 734 561 L 727 561 L 726 560 Z" />
  <path d="M 726 175 L 725 176 L 725 191 L 726 191 L 727 192 L 728 191 L 734 191 L 734 176 L 728 176 L 727 175 Z" />
  <path d="M 0 158 L 0 174 L 15 174 L 16 173 L 16 158 Z" />
  <path d="M 725 140 L 725 156 L 734 156 L 734 140 Z" />
  <path d="M 18 140 L 18 156 L 33 156 L 34 155 L 34 154 L 33 153 L 33 144 L 34 143 L 33 142 L 33 140 L 23 140 L 22 141 L 20 141 L 19 140 Z" />
  <path d="M 705 123 L 705 137 L 704 138 L 705 138 L 706 139 L 707 138 L 708 138 L 709 139 L 710 139 L 711 138 L 712 139 L 722 139 L 723 138 L 723 123 Z" />
  <path d="M 36 123 L 35 124 L 36 125 L 36 126 L 35 127 L 36 128 L 36 136 L 35 137 L 37 139 L 50 139 L 51 138 L 51 123 Z" />
  <path d="M 0 123 L 0 139 L 15 139 L 16 138 L 16 123 Z" />
  <path d="M 726 105 L 725 106 L 725 121 L 734 121 L 734 106 L 728 106 L 727 105 Z" />
  <path d="M 653 105 L 652 106 L 652 119 L 653 120 L 653 121 L 667 121 L 668 120 L 668 106 L 666 106 L 665 105 L 664 105 L 663 106 L 656 106 L 655 105 L 654 106 Z" />
  <path d="M 617 105 L 617 106 L 618 107 L 617 108 L 617 119 L 618 120 L 617 121 L 633 121 L 633 105 L 632 106 L 624 106 L 623 105 L 622 106 L 621 105 L 620 105 L 619 106 L 618 106 Z" />
  <path d="M 584 105 L 583 106 L 582 106 L 583 107 L 583 110 L 582 111 L 582 119 L 583 120 L 582 121 L 592 121 L 593 122 L 594 122 L 595 121 L 597 121 L 598 120 L 598 109 L 597 108 L 597 107 L 598 106 L 598 105 L 597 105 L 596 106 L 595 106 L 594 105 L 593 105 L 592 106 L 591 105 Z" />
  <path d="M 549 105 L 548 106 L 548 109 L 547 110 L 547 121 L 563 121 L 563 106 L 562 106 L 561 105 L 560 105 L 559 106 L 552 106 L 551 105 Z" />
  <path d="M 197 105 L 196 106 L 194 106 L 194 121 L 199 121 L 200 122 L 199 123 L 171 123 L 170 124 L 161 124 L 160 125 L 157 125 L 156 124 L 156 123 L 140 123 L 141 124 L 140 125 L 137 125 L 136 126 L 122 126 L 121 125 L 121 123 L 113 123 L 112 124 L 111 123 L 106 123 L 106 125 L 105 126 L 105 127 L 104 128 L 101 128 L 100 129 L 93 129 L 92 130 L 86 130 L 85 129 L 86 128 L 87 128 L 86 127 L 86 124 L 87 123 L 71 123 L 70 124 L 71 125 L 71 127 L 70 128 L 70 135 L 68 137 L 66 137 L 63 140 L 61 140 L 60 141 L 58 141 L 57 140 L 53 140 L 53 145 L 48 150 L 47 150 L 40 157 L 39 157 L 38 158 L 36 158 L 35 159 L 35 163 L 32 166 L 32 168 L 31 169 L 30 168 L 30 170 L 28 172 L 28 174 L 27 175 L 26 175 L 25 176 L 24 175 L 23 175 L 22 176 L 21 176 L 20 175 L 19 175 L 18 176 L 18 191 L 18 190 L 19 189 L 20 190 L 20 192 L 19 193 L 19 196 L 18 197 L 18 200 L 17 201 L 16 200 L 16 193 L 0 193 L 0 209 L 14 209 L 15 210 L 14 211 L 14 216 L 12 218 L 12 223 L 11 224 L 11 226 L 10 227 L 10 228 L 9 229 L 8 228 L 0 228 L 0 244 L 7 244 L 7 241 L 8 240 L 9 241 L 9 247 L 8 248 L 8 259 L 7 260 L 7 262 L 6 263 L 0 263 L 0 279 L 4 279 L 5 280 L 5 298 L 4 299 L 3 298 L 0 298 L 0 314 L 1 314 L 2 313 L 3 314 L 3 315 L 4 316 L 3 317 L 3 333 L 2 334 L 1 333 L 0 333 L 0 348 L 1 349 L 2 348 L 3 349 L 3 367 L 2 368 L 0 368 L 0 384 L 1 384 L 2 383 L 3 384 L 3 403 L 2 404 L 1 403 L 0 403 L 0 405 L 1 406 L 0 407 L 0 419 L 1 419 L 2 418 L 3 419 L 3 435 L 4 436 L 1 439 L 0 438 L 0 454 L 4 454 L 5 455 L 5 472 L 4 473 L 1 473 L 0 474 L 0 478 L 1 479 L 0 480 L 0 489 L 6 489 L 7 490 L 7 493 L 8 494 L 8 505 L 9 506 L 9 511 L 8 512 L 7 511 L 7 508 L 0 508 L 0 524 L 8 524 L 8 522 L 9 521 L 10 522 L 10 526 L 11 527 L 11 528 L 12 529 L 12 535 L 14 537 L 14 542 L 13 543 L 12 543 L 11 544 L 10 543 L 0 543 L 0 559 L 17 559 L 16 558 L 16 553 L 17 552 L 18 553 L 18 556 L 19 557 L 19 561 L 18 562 L 18 576 L 24 576 L 24 575 L 25 574 L 26 575 L 26 577 L 28 579 L 28 580 L 30 582 L 30 584 L 32 586 L 32 587 L 33 587 L 35 589 L 35 594 L 38 594 L 39 595 L 40 595 L 41 596 L 41 597 L 42 597 L 44 599 L 44 600 L 45 601 L 46 601 L 49 604 L 50 604 L 53 607 L 53 611 L 57 611 L 58 612 L 59 612 L 60 611 L 61 612 L 62 612 L 63 613 L 65 613 L 66 614 L 68 614 L 70 616 L 70 623 L 71 624 L 71 629 L 86 629 L 86 623 L 85 622 L 86 621 L 91 621 L 92 622 L 94 622 L 95 623 L 102 623 L 103 624 L 105 624 L 106 625 L 105 626 L 105 627 L 106 628 L 106 629 L 121 629 L 121 628 L 120 628 L 119 627 L 120 626 L 125 626 L 126 627 L 140 627 L 141 628 L 140 629 L 156 629 L 157 628 L 169 628 L 171 630 L 170 631 L 162 631 L 161 630 L 160 630 L 159 631 L 158 631 L 158 647 L 159 647 L 160 646 L 169 646 L 170 647 L 171 646 L 172 646 L 173 647 L 174 646 L 174 632 L 173 631 L 175 629 L 179 629 L 180 630 L 194 630 L 195 631 L 194 632 L 194 646 L 195 647 L 196 646 L 208 646 L 209 647 L 209 631 L 210 630 L 213 630 L 214 631 L 215 631 L 216 630 L 219 630 L 220 631 L 228 631 L 229 632 L 229 647 L 230 647 L 231 646 L 240 646 L 241 647 L 242 647 L 243 646 L 244 647 L 244 641 L 245 640 L 244 639 L 244 633 L 246 631 L 263 631 L 264 632 L 264 646 L 279 646 L 279 638 L 280 637 L 279 636 L 279 633 L 280 632 L 298 632 L 299 633 L 299 647 L 303 647 L 304 646 L 311 646 L 312 647 L 313 646 L 314 647 L 314 646 L 315 645 L 315 640 L 314 639 L 315 638 L 314 637 L 314 635 L 315 634 L 315 633 L 316 632 L 332 632 L 334 634 L 334 647 L 335 647 L 336 646 L 345 646 L 346 647 L 347 647 L 348 646 L 349 647 L 350 646 L 350 640 L 349 639 L 350 638 L 350 637 L 349 636 L 349 634 L 350 633 L 369 633 L 370 634 L 370 647 L 371 647 L 372 646 L 373 646 L 374 647 L 375 646 L 383 646 L 384 647 L 385 647 L 385 634 L 386 633 L 389 633 L 390 632 L 391 633 L 404 633 L 405 634 L 405 647 L 407 647 L 408 646 L 415 646 L 416 647 L 417 647 L 418 646 L 419 647 L 420 647 L 420 634 L 422 632 L 423 633 L 424 632 L 439 632 L 440 633 L 440 635 L 439 636 L 440 637 L 440 638 L 439 639 L 440 640 L 440 646 L 455 646 L 455 636 L 456 635 L 455 634 L 457 632 L 473 632 L 475 634 L 475 647 L 476 647 L 477 646 L 478 647 L 479 647 L 480 646 L 487 646 L 488 647 L 490 647 L 490 632 L 491 631 L 509 631 L 510 632 L 510 647 L 511 647 L 512 646 L 520 646 L 521 647 L 522 646 L 523 646 L 524 647 L 525 647 L 525 632 L 527 630 L 547 630 L 548 631 L 547 632 L 547 647 L 549 647 L 550 646 L 551 647 L 552 646 L 559 646 L 560 647 L 560 646 L 561 645 L 562 646 L 562 647 L 563 647 L 563 630 L 564 629 L 579 629 L 580 628 L 592 628 L 593 627 L 607 627 L 608 628 L 607 629 L 600 629 L 615 629 L 616 628 L 616 627 L 617 626 L 620 626 L 621 625 L 632 625 L 633 624 L 634 624 L 636 626 L 635 627 L 634 627 L 635 628 L 635 629 L 650 629 L 650 622 L 651 621 L 655 621 L 656 620 L 658 620 L 660 618 L 662 618 L 663 617 L 665 617 L 666 616 L 667 616 L 668 615 L 669 615 L 670 616 L 670 629 L 685 629 L 685 627 L 686 626 L 685 625 L 685 624 L 686 623 L 686 616 L 685 615 L 685 613 L 681 613 L 680 614 L 679 613 L 675 613 L 674 612 L 675 611 L 676 611 L 678 609 L 680 609 L 685 604 L 686 604 L 687 605 L 687 606 L 688 607 L 687 608 L 687 611 L 703 611 L 703 596 L 702 596 L 701 595 L 700 595 L 699 596 L 698 596 L 697 595 L 697 594 L 698 593 L 698 592 L 701 589 L 701 588 L 704 585 L 705 585 L 706 586 L 704 588 L 705 589 L 705 594 L 722 594 L 723 593 L 723 579 L 722 578 L 710 578 L 709 577 L 709 575 L 710 574 L 710 572 L 712 570 L 712 569 L 713 568 L 713 566 L 714 565 L 714 563 L 715 562 L 715 561 L 716 560 L 716 559 L 717 558 L 718 559 L 723 559 L 723 552 L 722 551 L 723 550 L 723 543 L 722 543 L 721 542 L 721 539 L 722 538 L 722 537 L 723 536 L 723 531 L 724 530 L 725 531 L 725 539 L 724 540 L 725 541 L 734 541 L 734 526 L 726 526 L 724 524 L 725 523 L 725 519 L 726 518 L 726 509 L 727 508 L 727 507 L 728 506 L 734 506 L 734 491 L 733 491 L 732 490 L 731 491 L 730 491 L 728 489 L 729 488 L 728 487 L 728 486 L 729 485 L 728 484 L 728 482 L 729 481 L 729 476 L 730 475 L 730 472 L 731 471 L 732 472 L 733 472 L 734 471 L 734 456 L 733 455 L 732 456 L 731 455 L 731 441 L 732 440 L 731 439 L 732 438 L 732 437 L 733 436 L 734 436 L 734 421 L 733 422 L 732 421 L 732 403 L 734 401 L 734 386 L 732 384 L 732 368 L 734 366 L 734 351 L 732 349 L 732 332 L 733 331 L 734 331 L 734 315 L 733 316 L 732 315 L 732 314 L 731 313 L 731 300 L 730 299 L 730 285 L 731 284 L 732 285 L 732 297 L 733 296 L 734 296 L 733 295 L 733 294 L 734 293 L 734 280 L 733 281 L 732 280 L 731 280 L 730 279 L 730 278 L 729 277 L 729 272 L 728 271 L 728 263 L 730 261 L 734 261 L 734 246 L 728 246 L 726 244 L 726 235 L 725 234 L 725 231 L 724 230 L 724 228 L 726 226 L 734 226 L 734 210 L 728 210 L 727 211 L 725 211 L 725 222 L 724 223 L 723 222 L 723 218 L 721 216 L 721 210 L 723 208 L 723 193 L 718 193 L 717 194 L 716 193 L 716 192 L 715 192 L 714 191 L 714 188 L 713 187 L 713 186 L 712 185 L 712 183 L 711 182 L 711 181 L 710 180 L 710 179 L 709 178 L 709 177 L 708 176 L 709 175 L 709 174 L 710 173 L 711 174 L 721 174 L 722 173 L 723 173 L 723 158 L 705 158 L 705 168 L 704 169 L 703 168 L 703 167 L 702 166 L 702 165 L 697 160 L 697 159 L 696 158 L 696 157 L 697 156 L 703 156 L 703 140 L 688 140 L 687 141 L 687 142 L 688 143 L 687 144 L 687 147 L 688 148 L 687 149 L 686 149 L 684 147 L 683 147 L 681 145 L 680 145 L 679 144 L 679 143 L 677 143 L 675 141 L 674 141 L 673 140 L 674 139 L 681 139 L 682 138 L 683 139 L 685 139 L 685 136 L 686 135 L 686 128 L 685 127 L 685 123 L 670 123 L 670 136 L 669 137 L 667 137 L 666 136 L 663 136 L 662 135 L 661 135 L 660 134 L 659 134 L 658 133 L 656 133 L 655 132 L 652 132 L 650 130 L 651 129 L 650 128 L 650 123 L 636 123 L 635 124 L 635 127 L 634 128 L 625 128 L 624 127 L 617 127 L 615 125 L 616 124 L 615 123 L 600 123 L 600 124 L 599 125 L 581 125 L 580 124 L 581 123 L 536 123 L 535 122 L 526 122 L 525 121 L 525 106 L 521 106 L 520 105 L 519 106 L 510 106 L 510 120 L 511 121 L 510 122 L 491 122 L 490 121 L 490 105 L 488 105 L 487 106 L 480 106 L 479 105 L 478 105 L 477 106 L 476 106 L 475 105 L 475 119 L 473 121 L 458 121 L 457 120 L 456 120 L 455 119 L 455 108 L 456 107 L 455 106 L 455 105 L 440 105 L 440 106 L 439 107 L 440 108 L 440 118 L 447 118 L 448 119 L 447 120 L 421 120 L 420 119 L 420 105 L 419 106 L 418 106 L 417 105 L 416 105 L 415 106 L 408 106 L 407 105 L 405 105 L 405 119 L 404 120 L 397 120 L 396 119 L 393 119 L 392 120 L 391 119 L 390 120 L 389 119 L 388 119 L 387 120 L 385 118 L 385 106 L 384 105 L 383 106 L 376 106 L 375 105 L 374 105 L 373 106 L 370 106 L 370 110 L 369 111 L 370 112 L 370 118 L 369 119 L 352 119 L 351 120 L 350 119 L 350 112 L 349 111 L 349 106 L 348 106 L 347 105 L 346 106 L 345 105 L 344 105 L 343 106 L 334 106 L 334 119 L 333 120 L 315 120 L 314 119 L 314 118 L 315 117 L 315 116 L 314 115 L 314 114 L 315 113 L 315 112 L 314 111 L 315 110 L 315 106 L 314 105 L 313 106 L 312 105 L 311 106 L 304 106 L 303 105 L 302 106 L 299 106 L 299 119 L 298 120 L 280 120 L 279 119 L 279 112 L 280 111 L 279 110 L 279 108 L 280 107 L 279 106 L 279 105 L 264 105 L 264 120 L 263 121 L 248 121 L 247 122 L 245 122 L 244 121 L 244 111 L 245 110 L 244 109 L 244 108 L 245 107 L 244 106 L 243 106 L 242 105 L 240 105 L 239 106 L 232 106 L 231 105 L 230 105 L 229 106 L 229 121 L 228 122 L 210 122 L 209 121 L 209 109 L 210 108 L 209 107 L 209 106 L 208 105 L 207 106 L 200 106 L 199 105 Z" />
  <path d="M 168 105 L 167 106 L 158 106 L 158 109 L 159 110 L 158 111 L 158 121 L 161 121 L 162 120 L 163 121 L 174 121 L 174 108 L 173 107 L 173 106 L 172 106 L 171 105 L 170 105 L 169 106 Z" />
  <path d="M 126 105 L 125 106 L 123 106 L 123 120 L 124 121 L 139 121 L 138 120 L 139 119 L 139 106 L 138 105 L 137 106 L 136 105 L 135 106 L 128 106 L 127 105 Z" />
  <path d="M 54 105 L 53 106 L 53 121 L 68 121 L 68 120 L 69 119 L 69 110 L 68 109 L 68 106 L 67 106 L 66 105 L 64 105 L 63 106 L 56 106 L 55 105 Z" />
  <path d="M 21 105 L 20 106 L 18 106 L 18 121 L 33 121 L 33 112 L 34 111 L 33 110 L 34 109 L 34 108 L 33 107 L 33 106 L 32 105 L 31 106 L 23 106 L 22 105 Z" />
  <path d="M 705 88 L 705 103 L 703 105 L 688 105 L 688 106 L 687 107 L 687 120 L 688 121 L 703 121 L 703 105 L 704 104 L 705 104 L 706 103 L 708 103 L 709 104 L 719 104 L 720 103 L 721 104 L 722 104 L 723 103 L 723 88 Z" />
  <path d="M 635 88 L 635 103 L 636 104 L 650 104 L 650 96 L 651 95 L 651 88 Z" />
  <path d="M 600 88 L 600 104 L 615 104 L 616 103 L 616 88 Z" />
  <path d="M 565 88 L 565 103 L 566 104 L 579 104 L 580 103 L 580 88 Z" />
  <path d="M 527 88 L 527 103 L 528 104 L 544 104 L 545 103 L 545 88 Z" />
  <path d="M 492 88 L 492 103 L 493 104 L 507 104 L 508 103 L 508 88 Z" />
  <path d="M 387 88 L 387 103 L 388 104 L 402 104 L 403 103 L 403 88 Z" />
  <path d="M 351 88 L 351 103 L 352 104 L 367 104 L 368 103 L 368 88 Z" />
  <path d="M 316 88 L 316 103 L 317 104 L 327 104 L 328 103 L 329 104 L 331 104 L 332 103 L 332 88 Z" />
  <path d="M 211 88 L 211 103 L 212 104 L 223 104 L 224 103 L 225 104 L 226 104 L 227 103 L 227 88 Z" />
  <path d="M 175 88 L 175 103 L 176 104 L 191 104 L 192 103 L 192 88 Z" />
  <path d="M 140 88 L 140 103 L 141 104 L 151 104 L 152 103 L 153 104 L 155 104 L 156 103 L 156 88 Z" />
  <path d="M 36 88 L 36 104 L 47 104 L 48 103 L 49 104 L 50 104 L 51 103 L 51 88 Z" />
  <path d="M 0 88 L 0 104 L 15 104 L 16 103 L 16 88 Z" />
  <path d="M 728 70 L 727 71 L 725 71 L 725 86 L 734 86 L 734 70 Z" />
  <path d="M 688 70 L 687 71 L 687 85 L 688 86 L 686 88 L 670 88 L 670 103 L 671 104 L 685 104 L 686 103 L 686 88 L 688 86 L 703 86 L 703 70 Z" />
  <path d="M 656 70 L 655 71 L 653 71 L 652 72 L 652 86 L 653 86 L 654 85 L 655 86 L 668 86 L 668 71 L 664 71 L 663 70 Z" />
  <path d="M 618 70 L 618 71 L 617 72 L 617 83 L 618 84 L 617 85 L 617 86 L 632 86 L 633 87 L 633 71 L 632 71 L 631 70 L 624 70 L 623 71 L 620 71 L 619 70 Z" />
  <path d="M 584 70 L 583 71 L 582 71 L 582 86 L 598 86 L 598 71 L 597 70 L 596 71 L 593 71 L 592 70 Z" />
  <path d="M 552 70 L 551 71 L 547 71 L 547 79 L 548 80 L 548 82 L 547 83 L 547 84 L 548 85 L 548 86 L 562 86 L 563 87 L 563 71 L 562 71 L 561 70 Z" />
  <path d="M 512 70 L 511 71 L 510 71 L 510 87 L 511 86 L 525 86 L 525 70 L 524 70 L 523 71 L 521 71 L 520 70 Z" />
  <path d="M 480 70 L 479 71 L 475 71 L 475 87 L 476 86 L 489 86 L 490 87 L 490 70 Z" />
  <path d="M 440 70 L 440 86 L 438 88 L 422 88 L 422 103 L 423 104 L 437 104 L 438 103 L 438 88 L 440 86 L 455 86 L 457 88 L 457 103 L 458 104 L 472 104 L 473 103 L 473 88 L 457 88 L 455 86 L 455 70 Z" />
  <path d="M 405 70 L 405 87 L 406 86 L 419 86 L 420 87 L 420 71 L 416 71 L 415 70 Z" />
  <path d="M 371 70 L 370 71 L 370 86 L 384 86 L 385 87 L 385 71 L 384 71 L 383 70 L 376 70 L 375 71 L 372 71 Z" />
  <path d="M 336 70 L 335 71 L 334 71 L 334 87 L 335 86 L 350 86 L 349 85 L 349 83 L 350 82 L 349 81 L 349 80 L 350 79 L 350 72 L 349 71 L 349 70 L 347 70 L 346 71 L 345 71 L 344 70 Z" />
  <path d="M 304 70 L 303 71 L 299 71 L 299 86 L 314 86 L 315 85 L 315 80 L 314 79 L 314 70 Z" />
  <path d="M 264 70 L 264 86 L 262 88 L 246 88 L 246 103 L 247 104 L 261 104 L 262 103 L 262 88 L 264 86 L 279 86 L 281 88 L 281 103 L 282 104 L 283 104 L 284 103 L 285 104 L 286 104 L 287 103 L 288 104 L 296 104 L 297 103 L 297 88 L 281 88 L 279 86 L 279 85 L 280 84 L 279 83 L 279 80 L 280 79 L 280 72 L 279 71 L 279 70 Z" />
  <path d="M 229 70 L 229 86 L 242 86 L 243 85 L 244 86 L 244 71 L 240 71 L 239 70 Z" />
  <path d="M 200 70 L 199 71 L 194 71 L 194 86 L 209 86 L 209 71 L 208 70 Z" />
  <path d="M 160 70 L 159 71 L 158 71 L 158 87 L 159 86 L 174 86 L 174 85 L 173 84 L 174 83 L 174 82 L 173 81 L 174 80 L 174 72 L 173 71 L 171 71 L 170 70 L 169 70 L 168 71 L 167 70 Z" />
  <path d="M 124 70 L 123 71 L 123 86 L 124 85 L 125 86 L 136 86 L 137 85 L 138 86 L 139 86 L 139 72 L 138 71 L 138 70 L 128 70 L 127 71 L 125 71 Z" />
  <path d="M 88 70 L 88 86 L 103 86 L 105 88 L 105 103 L 106 104 L 107 104 L 108 103 L 109 104 L 120 104 L 121 103 L 121 88 L 105 88 L 103 86 L 103 85 L 104 84 L 104 71 L 103 70 Z" />
  <path d="M 56 70 L 55 71 L 53 71 L 53 86 L 66 86 L 67 85 L 70 88 L 70 103 L 71 104 L 84 104 L 85 103 L 86 103 L 88 105 L 88 121 L 103 121 L 104 120 L 104 106 L 96 106 L 95 105 L 88 105 L 86 103 L 86 88 L 70 88 L 69 87 L 69 71 L 64 71 L 63 70 Z" />
  <path d="M 24 70 L 23 71 L 18 71 L 18 86 L 33 86 L 34 85 L 34 84 L 33 83 L 34 82 L 34 81 L 33 80 L 33 71 L 32 71 L 31 70 Z" />
  <path d="M 705 53 L 704 54 L 705 55 L 705 68 L 706 69 L 707 68 L 708 68 L 709 69 L 710 69 L 711 68 L 712 69 L 719 69 L 720 68 L 721 69 L 722 69 L 723 68 L 723 53 Z" />
  <path d="M 670 53 L 670 68 L 671 69 L 679 69 L 680 68 L 681 69 L 684 69 L 685 68 L 685 64 L 686 63 L 686 56 L 685 55 L 685 53 Z" />
  <path d="M 635 53 L 635 68 L 636 69 L 638 69 L 639 68 L 640 69 L 649 69 L 650 68 L 650 53 Z" />
  <path d="M 600 53 L 600 69 L 615 69 L 615 64 L 616 63 L 616 56 L 615 55 L 615 53 Z" />
  <path d="M 565 53 L 565 68 L 566 69 L 575 69 L 576 68 L 578 68 L 579 69 L 580 69 L 580 53 Z" />
  <path d="M 527 53 L 527 68 L 528 69 L 544 69 L 545 68 L 545 55 L 546 54 L 545 53 Z" />
  <path d="M 492 53 L 492 67 L 493 68 L 494 68 L 495 69 L 503 69 L 504 68 L 505 69 L 507 69 L 508 68 L 508 53 Z" />
  <path d="M 458 53 L 457 54 L 457 63 L 458 64 L 457 65 L 457 68 L 461 68 L 462 69 L 472 69 L 473 68 L 472 67 L 472 65 L 473 64 L 473 53 Z" />
  <path d="M 422 53 L 422 64 L 423 65 L 423 66 L 422 67 L 422 68 L 423 69 L 433 69 L 434 68 L 438 68 L 438 65 L 437 64 L 438 63 L 438 54 L 437 53 Z" />
  <path d="M 387 53 L 387 68 L 388 69 L 390 69 L 391 68 L 392 69 L 401 69 L 402 68 L 403 68 L 403 53 Z" />
  <path d="M 352 53 L 351 54 L 351 67 L 352 68 L 352 69 L 367 69 L 368 68 L 368 54 L 367 53 Z" />
  <path d="M 317 53 L 317 55 L 316 56 L 316 63 L 317 64 L 317 68 L 318 69 L 327 69 L 328 68 L 329 69 L 331 69 L 332 68 L 332 53 Z" />
  <path d="M 282 53 L 282 55 L 281 56 L 281 66 L 282 67 L 281 68 L 282 68 L 283 69 L 284 68 L 285 68 L 286 69 L 296 69 L 297 68 L 297 67 L 296 66 L 297 65 L 297 53 Z" />
  <path d="M 247 53 L 246 54 L 247 55 L 246 56 L 246 63 L 247 64 L 247 69 L 255 69 L 256 68 L 259 68 L 260 69 L 261 69 L 262 68 L 261 67 L 262 66 L 262 54 L 261 53 Z" />
  <path d="M 211 53 L 211 54 L 212 55 L 211 56 L 211 68 L 212 69 L 213 69 L 214 68 L 215 68 L 216 69 L 223 69 L 224 68 L 225 69 L 226 69 L 227 68 L 227 53 Z" />
  <path d="M 176 53 L 175 54 L 176 55 L 175 56 L 175 64 L 176 65 L 175 66 L 175 68 L 176 69 L 191 69 L 192 68 L 192 53 Z" />
  <path d="M 141 53 L 141 55 L 140 56 L 140 63 L 141 64 L 140 65 L 141 66 L 141 68 L 142 69 L 151 69 L 152 68 L 153 69 L 155 69 L 156 68 L 156 53 Z" />
  <path d="M 106 53 L 106 55 L 105 56 L 105 63 L 106 64 L 105 65 L 106 66 L 106 68 L 107 69 L 109 69 L 110 68 L 111 68 L 112 69 L 120 69 L 121 68 L 121 53 Z" />
  <path d="M 71 53 L 71 55 L 70 56 L 70 63 L 71 64 L 71 69 L 79 69 L 80 68 L 81 68 L 82 69 L 83 69 L 84 68 L 86 68 L 86 53 Z" />
  <path d="M 36 53 L 35 54 L 36 55 L 36 68 L 39 68 L 40 69 L 47 69 L 48 68 L 49 69 L 50 69 L 51 68 L 51 53 Z" />
  <path d="M 0 53 L 0 69 L 15 69 L 16 68 L 16 53 Z" />
  <path d="M 688 36 L 688 37 L 687 38 L 687 50 L 688 51 L 703 51 L 703 36 Z" />
  <path d="M 440 36 L 440 37 L 439 38 L 440 39 L 440 51 L 455 51 L 455 39 L 456 38 L 455 37 L 455 36 Z" />
  <path d="M 264 36 L 264 51 L 279 51 L 280 50 L 280 49 L 279 48 L 280 47 L 280 40 L 279 39 L 279 36 Z" />
  <path d="M 88 36 L 88 51 L 103 51 L 104 50 L 104 49 L 103 48 L 104 47 L 104 38 L 103 37 L 103 36 Z" />
  <path d="M 726 35 L 725 36 L 725 51 L 734 51 L 734 36 L 728 36 L 727 35 Z" />
  <path d="M 653 35 L 653 39 L 652 40 L 652 47 L 653 48 L 653 51 L 668 51 L 668 36 L 655 36 L 654 35 Z" />
  <path d="M 619 35 L 618 36 L 618 39 L 617 40 L 617 48 L 618 49 L 618 51 L 633 51 L 633 36 L 624 36 L 623 35 L 622 35 L 621 36 L 620 36 Z" />
  <path d="M 592 35 L 591 36 L 582 36 L 582 37 L 583 38 L 583 39 L 582 40 L 582 47 L 583 48 L 583 49 L 582 50 L 583 51 L 597 51 L 597 49 L 598 48 L 598 36 L 597 36 L 596 35 L 595 35 L 594 36 L 593 36 Z" />
  <path d="M 549 35 L 548 36 L 548 38 L 547 39 L 547 47 L 548 48 L 547 49 L 547 50 L 548 51 L 562 51 L 563 50 L 563 36 L 562 35 L 561 35 L 560 36 L 552 36 L 551 35 Z" />
  <path d="M 520 35 L 519 36 L 510 36 L 510 51 L 525 51 L 525 36 L 524 35 L 523 36 L 521 36 Z" />
  <path d="M 477 35 L 476 36 L 475 36 L 475 51 L 490 51 L 490 35 L 488 35 L 487 36 L 478 36 Z" />
  <path d="M 405 35 L 405 51 L 420 51 L 420 36 L 419 36 L 418 35 L 417 36 L 408 36 L 407 35 Z" />
  <path d="M 371 35 L 370 36 L 370 51 L 385 51 L 385 36 L 376 36 L 375 35 L 374 36 L 372 36 Z" />
  <path d="M 344 35 L 343 36 L 334 36 L 334 51 L 349 51 L 349 49 L 350 48 L 350 40 L 349 39 L 349 36 L 348 35 L 347 36 L 346 36 L 345 35 Z" />
  <path d="M 301 35 L 300 36 L 299 36 L 299 51 L 314 51 L 314 35 L 312 35 L 311 36 L 302 36 Z" />
  <path d="M 229 35 L 229 51 L 244 51 L 244 36 L 243 35 L 242 35 L 241 36 L 232 36 L 231 35 Z" />
  <path d="M 195 35 L 194 36 L 194 50 L 195 51 L 209 51 L 209 50 L 210 49 L 210 48 L 209 47 L 209 36 L 200 36 L 199 35 L 198 36 L 197 36 L 196 35 Z" />
  <path d="M 168 35 L 167 36 L 158 36 L 158 51 L 173 51 L 173 49 L 174 48 L 174 40 L 173 39 L 173 36 L 172 35 L 171 35 L 170 36 L 169 35 Z" />
  <path d="M 137 35 L 136 36 L 123 36 L 123 51 L 138 51 L 138 48 L 139 47 L 139 40 L 138 39 L 138 35 Z" />
  <path d="M 54 35 L 53 36 L 53 51 L 68 51 L 68 50 L 69 49 L 68 48 L 69 47 L 69 39 L 68 38 L 68 36 L 67 35 L 66 35 L 65 36 L 56 36 L 55 35 Z" />
  <path d="M 19 35 L 18 36 L 18 50 L 19 51 L 33 51 L 33 50 L 34 49 L 34 48 L 33 47 L 33 36 L 32 35 L 31 36 L 20 36 Z" />
  <path d="M 705 18 L 705 32 L 704 33 L 719 33 L 720 34 L 721 33 L 723 33 L 723 18 Z" />
  <path d="M 670 18 L 670 33 L 680 33 L 681 34 L 682 34 L 683 33 L 685 33 L 685 32 L 686 31 L 686 24 L 685 23 L 685 18 Z" />
  <path d="M 635 18 L 635 33 L 638 33 L 639 34 L 640 33 L 647 33 L 648 34 L 649 34 L 650 33 L 650 18 Z" />
  <path d="M 600 18 L 600 33 L 615 33 L 616 32 L 616 23 L 615 22 L 615 21 L 616 20 L 615 19 L 615 18 Z" />
  <path d="M 565 18 L 565 33 L 566 34 L 567 34 L 568 33 L 575 33 L 576 34 L 577 34 L 578 33 L 580 33 L 580 18 Z" />
  <path d="M 527 18 L 527 20 L 528 21 L 527 22 L 527 33 L 545 33 L 545 18 Z" />
  <path d="M 493 18 L 492 19 L 492 33 L 493 33 L 494 34 L 495 34 L 496 33 L 503 33 L 504 34 L 505 33 L 508 33 L 508 19 L 507 18 Z" />
  <path d="M 458 18 L 458 19 L 457 20 L 457 31 L 458 32 L 457 33 L 458 34 L 459 33 L 461 33 L 462 34 L 463 33 L 473 33 L 473 24 L 472 23 L 472 21 L 473 20 L 473 19 L 472 18 Z" />
  <path d="M 423 18 L 422 19 L 422 20 L 423 21 L 423 23 L 422 24 L 422 33 L 432 33 L 433 34 L 434 33 L 436 33 L 437 34 L 438 33 L 437 32 L 438 31 L 438 20 L 437 19 L 437 18 Z" />
  <path d="M 388 18 L 387 19 L 387 33 L 390 33 L 391 34 L 392 33 L 399 33 L 400 34 L 401 34 L 402 33 L 403 33 L 403 19 L 402 18 Z" />
  <path d="M 351 18 L 351 20 L 352 21 L 351 22 L 351 32 L 352 33 L 368 33 L 368 19 L 367 18 Z" />
  <path d="M 317 18 L 316 19 L 317 20 L 317 23 L 316 24 L 316 31 L 317 32 L 317 33 L 318 34 L 319 34 L 320 33 L 327 33 L 328 34 L 329 34 L 330 33 L 332 33 L 332 18 Z" />
  <path d="M 282 18 L 282 20 L 281 21 L 281 33 L 284 33 L 285 34 L 286 34 L 287 33 L 297 33 L 297 22 L 296 21 L 297 20 L 297 18 Z" />
  <path d="M 247 18 L 247 21 L 246 22 L 247 23 L 246 24 L 246 32 L 247 33 L 256 33 L 257 34 L 258 33 L 260 33 L 261 34 L 262 34 L 262 33 L 261 32 L 262 31 L 262 19 L 261 18 Z" />
  <path d="M 212 18 L 211 19 L 211 20 L 212 21 L 211 22 L 211 32 L 212 33 L 214 33 L 215 34 L 216 33 L 223 33 L 224 34 L 225 34 L 226 33 L 227 33 L 227 19 L 226 18 Z" />
  <path d="M 176 18 L 175 19 L 175 21 L 176 22 L 175 23 L 175 32 L 176 33 L 192 33 L 192 18 Z" />
  <path d="M 141 18 L 140 19 L 141 20 L 141 23 L 140 24 L 140 31 L 141 32 L 141 33 L 142 34 L 143 34 L 144 33 L 151 33 L 152 34 L 153 33 L 156 33 L 156 18 Z" />
  <path d="M 106 18 L 106 23 L 105 24 L 105 31 L 106 32 L 106 33 L 108 33 L 109 34 L 110 34 L 111 33 L 121 33 L 121 18 Z" />
  <path d="M 71 18 L 71 23 L 70 24 L 70 31 L 71 32 L 71 33 L 84 33 L 85 34 L 86 33 L 85 32 L 86 31 L 86 22 L 85 21 L 85 20 L 86 19 L 86 18 Z" />
  <path d="M 36 18 L 35 19 L 36 20 L 36 22 L 35 23 L 36 24 L 36 33 L 38 33 L 39 34 L 40 33 L 47 33 L 48 34 L 49 33 L 51 33 L 51 18 Z" />
  <path d="M 0 18 L 0 33 L 16 33 L 16 18 Z" />
  <path d="M 725 0 L 725 16 L 734 16 L 734 0 Z" />
  <path d="M 687 0 L 687 15 L 688 16 L 703 16 L 703 0 Z" />
  <path d="M 652 0 L 652 15 L 653 16 L 668 16 L 668 0 Z" />
  <path d="M 617 0 L 617 15 L 618 16 L 632 16 L 633 15 L 633 0 Z" />
  <path d="M 582 0 L 582 15 L 583 16 L 598 16 L 598 0 Z" />
  <path d="M 547 0 L 547 15 L 548 16 L 562 16 L 563 15 L 563 0 Z" />
  <path d="M 510 0 L 510 16 L 525 16 L 525 0 Z" />
  <path d="M 475 0 L 475 16 L 490 16 L 490 0 Z" />
  <path d="M 440 0 L 440 16 L 455 16 L 455 0 Z" />
  <path d="M 405 0 L 405 16 L 420 16 L 420 0 Z" />
  <path d="M 370 0 L 370 16 L 385 16 L 385 0 Z" />
  <path d="M 334 0 L 334 16 L 349 16 L 350 15 L 350 0 Z" />
  <path d="M 299 0 L 299 16 L 314 16 L 315 15 L 315 0 Z" />
  <path d="M 264 0 L 264 16 L 279 16 L 279 0 Z" />
  <path d="M 229 0 L 229 16 L 244 16 L 244 0 Z" />
  <path d="M 194 0 L 194 16 L 209 16 L 209 0 Z" />
  <path d="M 158 0 L 158 16 L 173 16 L 174 15 L 174 0 Z" />
  <path d="M 123 0 L 123 16 L 138 16 L 139 15 L 139 0 Z" />
  <path d="M 88 0 L 88 16 L 103 16 L 104 15 L 104 0 Z" />
  <path d="M 53 0 L 53 16 L 68 16 L 69 15 L 69 0 Z" />
  <path d="M 18 0 L 18 16 L 33 16 L 33 0 Z" />
</svg>